<svg width="22" height="18" viewBox="0 0 22 18" fill="none" xmlns="http://www.w3.org/2000/svg">
<path d="M20.7116 0.037253C20.1976 0.169012 19.7093 0.401158 19.2146 0.576837C13.2585 2.81674 7.30243 5.06292 1.34635 7.30282C0.922297 7.46595 0.459691 7.61653 0.151286 7.95534C-0.00291704 8.11847 -0.0607453 8.38826 0.080607 8.57649C0.27336 8.83374 0.601041 8.93412 0.896596 9.03451C2.39365 9.48626 3.89069 9.938 5.38132 10.4023C5.57407 10.4588 5.79895 10.5403 5.98528 10.4023C9.78894 8.06828 13.5862 5.72171 17.3963 3.3877C17.6276 3.23084 17.9167 3.22457 18.1866 3.26849C18.1095 3.41279 18.0324 3.56338 17.9039 3.67631C14.9804 6.24248 12.0763 8.81491 9.15928 11.3811C8.97938 11.5505 8.76735 11.6948 8.63885 11.9144C8.56175 12.2783 8.5746 12.6547 8.5489 13.0249C8.46537 14.3174 8.33687 15.6036 8.28547 16.8961C8.95368 16.8961 9.35846 16.3377 9.8018 15.9299C10.4443 15.3338 11.0675 14.719 11.7293 14.1417C13.3999 15.2711 15.0126 16.4946 16.6574 17.6616C17.0365 17.9126 17.544 18.1259 17.9938 17.9126C18.4114 17.7118 18.5528 17.2349 18.6427 16.8271C19.6965 11.9709 20.7502 7.11459 21.8103 2.25833C21.9324 1.67483 22.1509 1.02231 21.8424 0.463901C21.6304 0.0686243 21.1228 -0.0756833 20.7116 0.037253Z" fill="#545759"/>
</svg>
