<svg width="35" height="35" viewBox="0 0 35 35" fill="none" xmlns="http://www.w3.org/2000/svg">
<path d="M18.3333 4C10.9733 4 5 9.97333 5 17.3333C5 24.6933 10.9733 30.6667 18.3333 30.6667C25.6933 30.6667 31.6667 24.6933 31.6667 17.3333C31.6667 9.97333 25.6933 4 18.3333 4ZM19.6667 26.6667H17V24H19.6667V26.6667ZM22.4267 16.3333L21.2267 17.56C20.2667 18.5333 19.6667 19.3333 19.6667 21.3333H17V20.6667C17 19.2 17.6 17.8667 18.56 16.8933L20.2133 15.2133C20.7067 14.7333 21 14.0667 21 13.3333C21 11.8667 19.8 10.6667 18.3333 10.6667C16.8667 10.6667 15.6667 11.8667 15.6667 13.3333H13C13 10.3867 15.3867 8 18.3333 8C21.28 8 23.6667 10.3867 23.6667 13.3333C23.6667 14.5067 23.1867 15.5733 22.4267 16.3333Z" fill="#11263A"/>
</svg>
