<svg width="35" height="35" viewBox="0 0 35 35" fill="none" xmlns="http://www.w3.org/2000/svg">
<path d="M29.9243 17.687C29.8182 17.6876 29.7131 17.6673 29.615 17.6272C29.5169 17.5871 29.4276 17.5281 29.3523 17.4534L17.8409 5.93397L6.32953 17.4534C6.17543 17.5854 5.9772 17.6543 5.77446 17.6465C5.57173 17.6387 5.37941 17.5546 5.23594 17.4112C5.09248 17.2677 5.00843 17.0754 5.0006 16.8727C4.99277 16.6699 5.06173 16.4717 5.1937 16.3176L17.277 4.23425C17.428 4.08421 17.6321 4 17.845 4C18.0578 4 18.2619 4.08421 18.4129 4.23425L30.4962 16.3176C30.607 16.4307 30.6821 16.5739 30.712 16.7294C30.7419 16.8849 30.7253 17.0458 30.6643 17.1919C30.6032 17.3381 30.5005 17.4629 30.3689 17.551C30.2373 17.6391 30.0826 17.6864 29.9243 17.687Z" fill="#11263A"/>
<path d="M17.8424 8.65723L8.17578 18.3561V28.1597C8.17578 28.587 8.34552 28.9968 8.64766 29.299C8.94981 29.6011 9.3596 29.7708 9.78689 29.7708H15.4258V21.7153H20.2591V29.7708H25.898C26.3253 29.7708 26.7351 29.6011 27.0372 29.299C27.3394 28.9968 27.5091 28.587 27.5091 28.1597V18.2997L17.8424 8.65723Z" fill="#11263A"/>
</svg>
