<svg width="35" height="35" viewBox="0 0 35 35" fill="none" xmlns="http://www.w3.org/2000/svg">
<path d="M13.4902 15.0059C14.094 15.0059 14.584 14.5159 14.584 13.9121V9.64648C14.584 7.73953 16.1355 6.1875 18.0424 6.1875C19.9494 6.1875 21.5014 7.73953 21.5014 9.64648V13.9121C21.5014 14.5159 21.9909 15.0059 22.5952 15.0059C23.1989 15.0059 23.6889 14.5159 23.6889 13.9121V9.64648C23.6895 6.53313 21.1563 4 18.0424 4C14.9296 4 12.3965 6.53313 12.3965 9.64648V13.9121C12.3965 14.5159 12.8865 15.0059 13.4902 15.0059Z" fill="#11263A"/>
<path d="M30.5883 12.5479H24.7827V13.9118C24.7827 15.1182 23.8016 16.0993 22.5952 16.0993C21.3888 16.0993 20.4077 15.1182 20.4077 13.9118V12.5479H15.6777V13.9118C15.6777 15.1182 14.6966 16.0993 13.4902 16.0993C12.2838 16.0993 11.3027 15.1182 11.3027 13.9118V12.5479H5.43204C5.13016 12.5479 4.94368 12.7857 5.01532 13.0789L8.84235 28.6632C9.07313 29.5393 9.99516 30.2496 10.9008 30.2496H25.1195C26.0263 30.2496 26.9472 29.5393 27.1791 28.6632L31.005 13.0789C31.0766 12.7852 30.8907 12.5479 30.5883 12.5479Z" fill="#11263A"/>
</svg>
