<svg width="35" height="35" viewBox="0 0 35 35" fill="none" xmlns="http://www.w3.org/2000/svg">
<circle cx="17.5" cy="17.5" r="13.5" fill="#11263A"/>
<path d="M17.4875 17.8662C13.7085 17.8733 10.5822 20.8653 10.3934 24.6464C10.3884 24.7537 10.4053 24.8609 10.443 24.9615C10.4807 25.0621 10.5385 25.1539 10.6129 25.2314C10.6872 25.309 10.7766 25.3706 10.8755 25.4125C10.9744 25.4544 11.0808 25.4757 11.1882 25.4752H23.8178C23.9247 25.4749 24.0304 25.4529 24.1286 25.4106C24.2268 25.3684 24.3154 25.3066 24.389 25.2292C24.4627 25.1518 24.52 25.0602 24.5573 24.96C24.5947 24.8599 24.6113 24.7532 24.6063 24.6464C24.4173 20.8605 21.2837 17.8666 17.4999 17.8662H17.4875Z" fill="white"/>
<path d="M17.4997 9.52441C15.4965 9.52441 13.8633 11.1653 13.8633 13.1707C13.8633 15.1762 15.4964 16.8227 17.4997 16.8227C19.503 16.8227 21.1418 15.1762 21.1418 13.1707C21.1418 11.1653 19.503 9.52441 17.4997 9.52441Z" fill="white"/>
</svg>
