<svg width="35" height="35" viewBox="0 0 35 35" fill="none" xmlns="http://www.w3.org/2000/svg">
<path d="M10.3928 28.6211L8.13671 10.1211C8.06405 9.52518 8.52907 9 9.12936 9H26.8706C27.4709 9 27.936 9.52518 27.8633 10.1211L25.6072 28.6211C25.546 29.1228 25.12 29.5 24.6145 29.5H11.3855C10.88 29.5 10.454 29.1228 10.3928 28.6211Z" fill="#11263A"/>
<path d="M13 13L14 25" stroke="white" stroke-width="1.5" stroke-linecap="round"/>
<path d="M23 13L22 25" stroke="white" stroke-width="1.5" stroke-linecap="round"/>
<path d="M18 13V25" stroke="white" stroke-width="1.5" stroke-linecap="round"/>
<path d="M6 7H13M30 7H23M13 7H23M13 7V5.5V5C13 4.44772 13.4477 4 14 4H22C22.5523 4 23 4.44772 23 5V7" stroke="#11263A" stroke-width="2.5" stroke-linecap="round"/>
</svg>
