<svg width="35" height="35" viewBox="0 0 35 35" fill="none" xmlns="http://www.w3.org/2000/svg">
<path d="M7 27V8C7 6.34315 8.34315 5 10 5H25C26.6569 5 28 6.34315 28 8V27C28 28.6569 26.6569 30 25 30H10C8.34315 30 7 28.6569 7 27Z" fill="#11263A"/>
<circle cx="22" cy="11" r="3" fill="white"/>
<path d="M12.8521 16.615L9.44679 26.6795C9.22742 27.3279 9.70958 28 10.394 28H25.2124C25.9943 28 26.4737 27.143 26.0645 26.4767L22.5946 20.8262C22.2159 20.2096 21.328 20.1868 20.9182 20.7832L19.0735 23.4679C18.6182 24.1306 17.6065 24.0121 17.3166 23.2621L14.7321 16.575C14.3949 15.7028 13.1518 15.7292 12.8521 16.615Z" fill="white"/>
</svg>
