<svg width="35" height="35" viewBox="0 0 35 35" fill="none" xmlns="http://www.w3.org/2000/svg">
<circle cx="17.5" cy="17.5" r="13.5" fill="#11263A"/>
<g clip-path="url(#clip0_6749_236)">
<path d="M17.2301 21.0605L16.0957 19.9264L19.9993 16.0225C21.4175 16.7869 23.2159 16.5864 24.4148 15.3896C25.875 13.9274 25.875 11.5567 24.4148 10.0966C22.9528 8.63448 20.5819 8.63448 19.1197 10.0966C17.9229 11.2935 17.7235 13.0941 18.4874 14.5103L10.8024 22.1968C10.3862 22.6125 10.3862 23.2934 10.8024 23.709C11.218 24.1248 11.8991 24.1248 12.3146 23.709L13.4488 24.8433C13.6578 25.0522 13.9961 25.0522 14.205 24.8433L14.9612 24.0872C15.1704 23.8784 15.1704 23.54 14.9612 23.3311L13.8269 22.1968L14.583 21.4384L15.7177 22.5749C15.9266 22.7838 16.2651 22.7838 16.4739 22.5749L17.2301 21.8188C17.4389 21.6077 17.4389 21.2717 17.2301 21.0605ZM20.6321 11.6089C21.2587 10.9823 22.2762 10.9823 22.9027 11.6089C23.527 12.2334 23.527 13.2527 22.9027 13.8773C22.2762 14.5018 21.2587 14.5018 20.6321 13.8773C20.0075 13.2527 20.0075 12.2335 20.6321 11.6089Z" fill="white"/>
</g>
<defs>
<clipPath id="clip0_6749_236">
<rect width="16" height="16" fill="white" transform="translate(10 9)"/>
</clipPath>
</defs>
</svg>
