<svg width="35" height="35" viewBox="0 0 35 35" fill="none" xmlns="http://www.w3.org/2000/svg">
<path d="M30.0742 17.4998C30.0742 10.5619 24.429 4.9209 17.497 4.9209C10.5651 4.9209 4.91992 10.5619 4.91992 17.4998C4.91992 24.4377 10.5651 30.0787 17.497 30.0787C24.429 30.0787 30.0742 24.4327 30.0742 17.4998Z" fill="#FE0845"/>
<path d="M17.4975 0C7.84899 0 0 7.8501 0 17.5C0 21.8935 1.63192 25.9073 4.31399 28.9842C4.58022 29.2949 4.96971 29.497 5.41344 29.497C6.21214 29.497 6.86294 28.8462 6.86294 28.0473C6.86294 27.6874 6.72489 27.357 6.50796 27.1055H6.51782C4.26962 24.5316 2.90393 21.1736 2.90393 17.5C2.90393 9.44773 9.45133 2.89941 17.5025 2.89941C25.5536 2.89941 32.101 9.44773 32.101 17.5C32.101 25.5523 25.5536 32.1006 17.5025 32.1006C14.7612 32.1006 12.1926 31.3412 9.99859 30.0197C9.7718 29.8767 9.50556 29.788 9.21468 29.788C8.41597 29.788 7.76518 30.4389 7.76518 31.2377C7.76518 31.7604 8.0462 32.214 8.46035 32.4704C11.103 34.0779 14.1992 35 17.5025 35C27.151 35 35 27.1499 35 17.5C35 7.8501 27.1461 0 17.4975 0Z" fill="#FE0845"/>
<path d="M14.9489 22.8682C13.5882 22.8682 12.4115 22.3765 11.4479 21.3981C10.4891 20.4245 10 19.2298 10 17.8433C10 16.4567 10.4891 15.2718 11.4479 14.2934C12.4115 13.3149 13.5882 12.8184 14.9489 12.8184C16.1159 12.8184 17.1812 13.2117 18.1206 13.9885C18.3046 14.1655 18.3918 14.3917 18.3918 14.6523C18.3918 14.7801 18.3675 14.9031 18.324 15.0161C18.2755 15.1292 18.2126 15.2276 18.1303 15.3111C18.0479 15.3947 17.9511 15.4636 17.8349 15.5078C17.7235 15.5521 17.6073 15.5766 17.4814 15.5766C17.2586 15.5766 17.0504 15.4931 16.8616 15.3259C16.6049 15.1243 16.3096 14.9571 15.9851 14.8391C15.6655 14.7261 15.3169 14.6671 14.9489 14.6671C14.0772 14.6671 13.3509 14.9719 12.7311 15.6012C12.1209 16.2207 11.8207 16.9533 11.8207 17.8433C11.8207 18.7332 12.1161 19.4707 12.7311 20.0902C13.346 20.7146 14.0724 21.0195 14.9489 21.0195C15.6994 21.0195 16.3386 20.7933 16.9052 20.3213C17.0698 20.2033 17.2441 20.1492 17.4427 20.1443C17.5782 20.1443 17.6993 20.1689 17.8107 20.218C17.9172 20.2672 18.0092 20.3311 18.0915 20.4098C18.1738 20.4885 18.2416 20.5868 18.2901 20.6999C18.3385 20.8179 18.3627 20.9408 18.3627 21.0637C18.3627 21.3046 18.2659 21.5308 18.0867 21.7176C17.1473 22.4847 16.1013 22.8583 14.9489 22.8583V22.8682Z" fill="white"/>
<path d="M22.2753 15.847C22.2753 15.847 22.2511 15.8519 22.2366 15.8568V15.847H21.9121V14.9718C21.917 14.7702 21.9509 14.6374 22.0187 14.5735C22.0961 14.4998 22.2124 14.4604 22.3673 14.4506C22.3721 14.4506 22.3818 14.4457 22.3915 14.4408C22.7498 14.4064 23.0355 14.1114 23.0355 13.7426C23.0355 13.4132 22.808 13.1428 22.5077 13.0641C22.498 13.0592 22.4932 13.0444 22.4787 13.0444C22.2608 12.9953 22.0574 12.9756 21.8685 12.9756C21.3698 12.9756 20.9872 13.0887 20.7161 13.3148C20.4449 13.541 20.2851 13.8458 20.2367 14.2294C20.2125 14.3965 20.1979 14.9374 20.1931 15.8519V15.8765C19.8493 15.9355 19.5781 16.2255 19.5781 16.5943C19.5781 16.9631 19.8445 17.2531 20.1931 17.3121V21.9634C20.1931 22.4452 20.5805 22.8386 21.055 22.8386C21.5296 22.8386 21.917 22.4452 21.917 21.9634V17.3367H22.2947C22.6917 17.3269 23.0113 17.0024 23.0113 16.5943C23.0113 16.1862 22.6821 15.8519 22.2801 15.8519L22.2753 15.847Z" fill="white"/>
</svg>
