<svg width="136" height="13" viewBox="0 0 136 13" fill="none" xmlns="http://www.w3.org/2000/svg">
<path d="M11.701 2.80463L10.1916 4.27747C9.16628 3.16699 8.01569 2.61176 6.73408 2.61176C5.65184 2.61176 4.74047 2.99166 3.99999 3.75145C3.25951 4.51125 2.88926 5.44638 2.88926 6.55685C2.88926 7.33418 3.05445 8.018 3.37912 8.61999C3.70949 9.22198 4.17087 9.68955 4.76895 10.0344C5.36704 10.3792 6.03347 10.5487 6.76826 10.5487C7.39482 10.5487 7.96442 10.426 8.48276 10.1863C9.0011 9.94671 9.5707 9.50837 10.1916 8.87715L11.6498 10.4435C10.8124 11.2793 10.0207 11.8637 9.28021 12.1852C8.53403 12.5066 7.68532 12.6703 6.73408 12.6703C4.97401 12.6703 3.53292 12.0975 2.4108 10.952C1.28868 9.80644 0.730469 8.33945 0.730469 6.55101C0.730469 5.39378 0.986792 4.36513 1.49374 3.46507C2.00638 2.565 2.73547 1.84027 3.68671 1.29088C4.63794 0.741492 5.66323 0.466797 6.76256 0.466797C7.69671 0.466797 8.59668 0.671358 9.46248 1.07463C10.3283 1.47791 11.0745 2.05652 11.6953 2.79879L11.701 2.80463Z" fill="#FE0845"/>
<path d="M13.5078 0.759736H15.6723V8.27002C15.6723 8.91877 15.7293 9.37465 15.8375 9.6435C15.9457 9.91235 16.128 10.1286 16.3843 10.2864C16.6406 10.4442 16.9425 10.526 17.3014 10.526C17.683 10.526 18.0077 10.4384 18.2811 10.2572C18.5545 10.076 18.7425 9.84806 18.8507 9.57337C18.9532 9.29867 19.0102 8.76681 19.0102 7.98949V0.753892H21.1747V7.67972C21.1747 8.84864 21.112 9.66104 20.981 10.1111C20.85 10.5611 20.6051 10.9994 20.2462 11.4203C19.8874 11.8411 19.4659 12.1508 18.9931 12.3554C18.5203 12.5599 17.9735 12.6593 17.3469 12.6593C16.5267 12.6593 15.809 12.4664 15.2052 12.0807C14.5958 11.695 14.1629 11.2098 13.9008 10.6254C13.6388 10.0409 13.5078 9.05904 13.5078 7.67388V0.748047V0.759736Z" fill="#FE0845"/>
<path d="M29.614 2.33703L28.0191 3.78065C27.4609 2.97994 26.8856 2.58251 26.3046 2.58251C26.0198 2.58251 25.792 2.65849 25.6097 2.81629C25.4274 2.97409 25.342 3.14943 25.342 3.3423C25.342 3.53517 25.4047 3.7222 25.5357 3.89754C25.7123 4.13132 26.2363 4.62811 27.1135 5.38791C27.9337 6.0951 28.435 6.53929 28.6115 6.72047C29.0501 7.1705 29.3577 7.60885 29.54 8.01797C29.7223 8.43293 29.8134 8.88297 29.8134 9.37391C29.8134 10.3266 29.4944 11.1156 28.8508 11.7351C28.2071 12.3546 27.3698 12.6644 26.3388 12.6644C25.53 12.6644 24.8294 12.4599 24.2313 12.0566C23.6332 11.6533 23.1206 11.0162 22.6934 10.1454L24.5047 9.02324C25.0515 10.0519 25.6781 10.5604 26.3844 10.5604C26.7546 10.5604 27.0679 10.4493 27.3185 10.2272C27.5692 10.0051 27.6945 9.75381 27.6945 9.46158C27.6945 9.19857 27.5976 8.93557 27.4097 8.67256C27.2217 8.40955 26.8002 8.00628 26.1508 7.46273C24.9148 6.42824 24.1231 5.63338 23.7585 5.0723C23.3997 4.51122 23.2174 3.95014 23.2174 3.3949C23.2174 2.58835 23.5193 1.89869 24.1174 1.32008C24.7154 0.741464 25.4559 0.455078 26.3331 0.455078C26.897 0.455078 27.4381 0.589504 27.9451 0.858355C28.4577 1.12721 29.0102 1.61815 29.6083 2.32534L29.614 2.33703Z" fill="#FE0845"/>
<path d="M30.7537 0.759766H37.008V2.93979H34.946V12.3788H32.7587V2.93979H30.748V0.759766H30.7537Z" fill="#FE0845"/>
<path d="M43.8324 0.465928C45.433 0.465928 46.8114 1.06208 47.962 2.24853C49.1126 3.43498 49.6936 4.89028 49.6936 6.59689C49.6936 8.30351 49.124 9.72959 47.9848 10.8985C46.8456 12.0733 45.4672 12.6577 43.8438 12.6577C42.2204 12.6577 40.7338 12.0557 39.6059 10.8517C38.4838 9.64777 37.9199 8.21584 37.9199 6.55598C37.9199 5.44551 38.1819 4.42271 38.706 3.49342C39.23 2.56413 39.9477 1.82187 40.8648 1.27832C41.7818 0.734778 42.7672 0.460083 43.8267 0.460083L43.8324 0.465928ZM43.8096 2.62842C42.7615 2.62842 41.8787 3.00248 41.1667 3.75058C40.4547 4.49869 40.0958 5.44551 40.0958 6.60274C40.0958 7.88855 40.5458 8.9055 41.4458 9.65361C42.1464 10.2381 42.9438 10.5303 43.8495 10.5303C44.8691 10.5303 45.7406 10.1504 46.4583 9.3906C47.176 8.63081 47.5348 7.69568 47.5348 6.58521C47.5348 5.47473 47.1703 4.54545 46.4469 3.77981C45.7235 3.01417 44.8406 2.62842 43.8039 2.62842H43.8096Z" fill="#FE0845"/>
<path d="M52.8247 0.759766H54.9265L57.5524 8.86036L60.201 0.759766H62.2972L64.1939 12.3788H62.1092L60.8959 5.04384L58.4922 12.3788H56.5954L54.2088 5.04384L52.9671 12.3788H50.8652L52.8247 0.759766Z" fill="#FE0845"/>
<path d="M65.9961 0.759766H71.6693V1.89946H67.1296V5.54063H71.6693V6.68033H67.1296V12.3846H65.9961V0.759766Z" fill="#FE0845"/>
<path d="M78.2662 0.759766L83.5464 12.3788H82.3218L80.5389 8.55644H75.6631L73.8973 12.3788H72.6328L77.9814 0.759766H78.2605H78.2662ZM78.1238 3.22618L76.1814 7.42844H80.049L78.1181 3.22618H78.1238Z" fill="#FE0845"/>
<path d="M95.8428 2.91569L94.9485 3.61704C94.4586 2.9566 93.8662 2.45981 93.177 2.12083C92.4878 1.78184 91.7302 1.61235 90.9043 1.61235C89.9986 1.61235 89.167 1.83444 88.3924 2.27863C87.6234 2.72282 87.0253 3.31897 86.6038 4.07292C86.1823 4.82687 85.9659 5.66849 85.9659 6.60362C85.9659 8.01801 86.4386 9.20446 87.3842 10.1513C88.3297 11.0981 89.5259 11.5715 90.967 11.5715C92.5505 11.5715 93.8776 10.9345 94.9485 9.66034L95.8428 10.3558C95.2789 11.0923 94.5726 11.665 93.7295 12.0683C92.8865 12.4716 91.941 12.6703 90.9043 12.6703C88.9221 12.6703 87.3614 11.9923 86.2165 10.6422C85.2596 9.50254 84.7754 8.12321 84.7754 6.50427C84.7754 4.80349 85.3564 3.37157 86.5184 2.21434C87.6804 1.05127 89.1385 0.472656 90.8872 0.472656C91.9467 0.472656 92.8979 0.688906 93.7523 1.11556C94.6067 1.54222 95.3016 2.14421 95.8428 2.92154V2.91569Z" fill="#FE0845"/>
<path d="M96.9863 1.89946V0.759766H103.189V1.89946H100.666V12.3788H99.5097V1.89946H96.9863Z" fill="#FE0845"/>
<path d="M110.214 0.466797C111.928 0.466797 113.364 1.05126 114.52 2.22602C115.676 3.40078 116.252 4.84439 116.252 6.5627C116.252 8.281 115.676 9.70708 114.52 10.8877C113.37 12.0741 111.963 12.6644 110.305 12.6644C108.648 12.6644 107.212 12.0741 106.056 10.8935C104.9 9.71293 104.324 8.28685 104.324 6.6153C104.324 5.49898 104.586 4.46449 105.116 3.51182C105.646 2.55916 106.358 1.81105 107.269 1.27335C108.175 0.735648 109.16 0.466797 110.22 0.466797H110.214ZM110.265 1.5948C109.428 1.5948 108.636 1.8169 107.884 2.26693C107.132 2.71696 106.546 3.31895 106.13 4.07875C105.708 4.83854 105.498 5.68016 105.498 6.6153C105.498 7.99462 105.965 9.16354 106.899 10.1104C107.833 11.063 108.955 11.5364 110.271 11.5364C111.148 11.5364 111.963 11.3202 112.709 10.8818C113.455 10.4435 114.042 9.84735 114.457 9.08756C114.879 8.32776 115.084 7.48614 115.084 6.55685C115.084 5.62756 114.873 4.80348 114.457 4.05537C114.036 3.30726 113.449 2.71112 112.686 2.26693C111.923 1.8169 111.12 1.5948 110.265 1.5948Z" fill="#FE0845"/>
<path d="M118.58 0.759766H120.836C122.095 0.759766 122.943 0.812367 123.393 0.91757C124.065 1.07537 124.612 1.41436 125.034 1.93453C125.455 2.45469 125.666 3.09175 125.666 3.85155C125.666 4.48277 125.524 5.038 125.233 5.51726C124.943 5.99651 124.527 6.35888 123.991 6.60435C123.45 6.84982 122.71 6.97256 121.758 6.9784L125.831 12.373H124.43L120.357 6.9784H119.719V12.373H118.586V0.759766H118.58ZM119.714 1.89946V5.8504L121.662 5.86793C122.419 5.86793 122.977 5.79195 123.336 5.64584C123.701 5.49972 123.98 5.26009 124.185 4.93864C124.39 4.61719 124.487 4.25483 124.487 3.85155C124.487 3.44827 124.384 3.10929 124.179 2.78784C123.974 2.47223 123.707 2.24429 123.37 2.10402C123.034 1.96959 122.482 1.89946 121.707 1.89946H119.714Z" fill="#FE0845"/>
<path d="M127.193 0.759766H128.498L131.391 5.55232L134.245 0.759766H135.555L131.967 6.82644V12.3788H130.85V6.82644L127.193 0.759766Z" fill="#FE0845"/>
</svg>
