<svg width="176" height="35" viewBox="0 0 176 35" fill="none" xmlns="http://www.w3.org/2000/svg">
<path d="M51.9848 13.3084L50.4734 14.7553C49.4468 13.6644 48.2947 13.1189 47.0114 13.1189C45.9278 13.1189 45.0152 13.4921 44.2738 14.2385C43.5323 14.9849 43.1616 15.9036 43.1616 16.9945C43.1616 17.7581 43.327 18.4299 43.6521 19.0213C43.9829 19.6127 44.4449 20.072 45.0437 20.4108C45.6426 20.7495 46.3099 20.916 47.0456 20.916C47.673 20.916 48.2434 20.7955 48.7624 20.56C49.2814 20.3246 49.8517 19.894 50.4734 19.2739L51.9335 20.8127C51.0951 21.6337 50.3023 22.2079 49.5609 22.5237C48.8137 22.8395 47.9639 23.0002 47.0114 23.0002C45.2491 23.0002 43.8061 22.4376 42.6825 21.3122C41.5589 20.1868 41 18.7457 41 16.9888C41 15.8519 41.2567 14.8414 41.7643 13.9572C42.2776 13.073 43.0076 12.361 43.9601 11.8213C44.9126 11.2816 45.9392 11.0117 47.0399 11.0117C47.9753 11.0117 48.8764 11.2127 49.7434 11.6088C50.6103 12.005 51.3574 12.5734 51.9791 13.3026L51.9848 13.3084Z" fill="white"/>
<path d="M53.7939 11.2993H55.9613V18.6773C55.9613 19.3146 56.0183 19.7624 56.1267 20.0265C56.235 20.2907 56.4175 20.5031 56.6742 20.6581C56.9308 20.8131 57.2331 20.8935 57.5924 20.8935C57.9746 20.8935 58.2997 20.8074 58.5734 20.6294C58.8472 20.4514 59.0354 20.2275 59.1438 19.9576C59.2464 19.6878 59.3035 19.1653 59.3035 18.4017V11.2935H61.4708V18.0974C61.4708 19.2457 61.408 20.0438 61.2769 20.4859C61.1457 20.928 60.9004 21.3586 60.5411 21.772C60.1818 22.1854 59.7597 22.4897 59.2864 22.6907C58.813 22.8916 58.2654 22.9892 57.6381 22.9892C56.8168 22.9892 56.0981 22.7997 55.4936 22.4208C54.8833 22.0418 54.4498 21.5653 54.1875 20.9911C53.9251 20.417 53.7939 19.4524 53.7939 18.0916V11.2878V11.2993Z" fill="white"/>
<path d="M69.9209 12.8488L68.3239 14.267C67.765 13.4804 67.1889 13.09 66.6072 13.09C66.322 13.09 66.0939 13.1646 65.9114 13.3196C65.7289 13.4746 65.6433 13.6469 65.6433 13.8364C65.6433 14.0258 65.706 14.2096 65.8372 14.3818C66.014 14.6115 66.5387 15.0995 67.4171 15.8459C68.2384 16.5407 68.7403 16.977 68.9171 17.155C69.3562 17.5971 69.6642 18.0278 69.8467 18.4297C70.0292 18.8373 70.1205 19.2794 70.1205 19.7617C70.1205 20.6976 69.8011 21.4727 69.1566 22.0813C68.5121 22.69 67.6737 22.9943 66.6414 22.9943C65.8315 22.9943 65.13 22.7933 64.5311 22.3971C63.9323 22.001 63.419 21.3751 62.9912 20.5196L64.8049 19.4172C65.3524 20.4278 65.9798 20.9273 66.687 20.9273C67.0578 20.9273 67.3715 20.8182 67.6224 20.6C67.8734 20.3818 67.9988 20.1349 67.9988 19.8478C67.9988 19.5895 67.9019 19.3311 67.7137 19.0727C67.5254 18.8144 67.1034 18.4182 66.4532 17.8842C65.2156 16.8679 64.4228 16.0871 64.0578 15.5359C63.6984 14.9847 63.5159 14.4335 63.5159 13.888C63.5159 13.0957 63.8182 12.4182 64.4171 11.8498C65.0159 11.2813 65.7574 11 66.6357 11C67.2003 11 67.7422 11.1321 68.2498 11.3962C68.7631 11.6603 69.3163 12.1426 69.9152 12.8373L69.9209 12.8488Z" fill="white"/>
<path d="M71.0623 11.2993H77.3247V13.4409H75.2601V22.7137H73.07V13.4409H71.0566V11.2993H71.0623Z" fill="white"/>
<path d="M84.1584 11.0107C85.7611 11.0107 87.1413 11.5964 88.2934 12.7619C89.4455 13.9275 90.0273 15.3572 90.0273 17.0337C90.0273 18.7103 89.4569 20.1112 88.3163 21.2596C87.1756 22.4136 85.7953 22.9878 84.1699 22.9878C82.5444 22.9878 81.0558 22.3964 79.9265 21.2136C78.8029 20.0308 78.2383 18.6241 78.2383 16.9935C78.2383 15.9026 78.5006 14.8978 79.0253 13.9849C79.5501 13.072 80.2687 12.3428 81.187 11.8088C82.1052 11.2749 83.0919 11.005 84.1527 11.005L84.1584 11.0107ZM84.1356 13.1351C83.0862 13.1351 82.2022 13.5026 81.4892 14.2375C80.7763 14.9725 80.417 15.9026 80.417 17.0395C80.417 18.3026 80.8676 19.3017 81.7687 20.0366C82.4702 20.6107 83.2687 20.8978 84.1756 20.8978C85.1965 20.8978 86.0691 20.5246 86.7877 19.7782C87.5064 19.0318 87.8657 18.1131 87.8657 17.0222C87.8657 15.9313 87.5007 15.0184 86.7763 14.2662C86.052 13.5141 85.1679 13.1351 84.1299 13.1351H84.1356Z" fill="white"/>
<path d="M93.1622 11.2993H95.2667L97.896 19.2572L100.548 11.2993H102.647L104.546 22.7137H102.459L101.244 15.5079L98.8371 22.7137H96.9379L94.5481 15.5079L93.3048 22.7137H91.2002L93.1622 11.2993Z" fill="white"/>
<path d="M106.351 11.2993H112.031V12.4189H107.486V15.996H112.031V17.1156H107.486V22.7194H106.351V11.2993Z" fill="white"/>
<path d="M118.637 11.2993L123.924 22.7137H122.698L120.912 18.9586H116.03L114.262 22.7137H112.996L118.352 11.2993H118.631H118.637ZM118.494 13.7223L116.549 17.8505H120.422L118.489 13.7223H118.494Z" fill="white"/>
<path d="M136.236 13.4168L135.341 14.1058C134.85 13.457 134.257 12.9689 133.567 12.6359C132.877 12.3029 132.118 12.1364 131.291 12.1364C130.384 12.1364 129.552 12.3546 128.776 12.7909C128.006 13.2273 127.407 13.813 126.985 14.5536C126.563 15.2943 126.346 16.1211 126.346 17.0398C126.346 18.4292 126.82 19.5948 127.766 20.5249C128.713 21.4551 129.911 21.9201 131.354 21.9201C132.939 21.9201 134.268 21.2943 135.341 20.0426L136.236 20.7259C135.671 21.4493 134.964 22.012 134.12 22.4082C133.276 22.8043 132.329 22.9996 131.291 22.9996C129.306 22.9996 127.744 22.3335 126.597 21.0072C125.639 19.8876 125.154 18.5326 125.154 16.9421C125.154 15.2713 125.736 13.8646 126.9 12.7278C128.063 11.5852 129.523 11.0168 131.274 11.0168C132.335 11.0168 133.287 11.2292 134.143 11.6484C134.998 12.0675 135.694 12.6589 136.236 13.4225V13.4168Z" fill="white"/>
<path d="M137.381 12.4189V11.2993H143.592V12.4189H141.065V22.7137H139.907V12.4189H137.381Z" fill="white"/>
<path d="M150.626 11.0117C152.343 11.0117 153.78 11.5859 154.938 12.7399C156.095 13.894 156.672 15.3122 156.672 17.0002C156.672 18.6883 156.095 20.0892 154.938 21.249C153.786 22.4146 152.377 22.9945 150.717 22.9945C149.057 22.9945 147.62 22.4146 146.462 21.2548C145.305 20.095 144.729 18.694 144.729 17.0519C144.729 15.9553 144.991 14.939 145.521 14.0031C146.052 13.0672 146.765 12.3323 147.677 11.8041C148.584 11.2758 149.571 11.0117 150.632 11.0117H150.626ZM150.677 12.1199C149.839 12.1199 149.046 12.338 148.293 12.7801C147.54 13.2222 146.953 13.8136 146.536 14.56C146.114 15.3065 145.903 16.1332 145.903 17.0519C145.903 18.4069 146.371 19.5553 147.306 20.4854C148.242 21.4213 149.365 21.8864 150.683 21.8864C151.561 21.8864 152.377 21.6739 153.124 21.2433C153.871 20.8127 154.459 20.227 154.875 19.4806C155.297 18.7342 155.502 17.9074 155.502 16.9945C155.502 16.0816 155.291 15.272 154.875 14.5371C154.453 13.8021 153.865 13.2165 153.101 12.7801C152.337 12.338 151.533 12.1199 150.677 12.1199Z" fill="white"/>
<path d="M159.003 11.2993H161.261C162.522 11.2993 163.372 11.351 163.822 11.4543C164.495 11.6094 165.043 11.9424 165.465 12.4534C165.887 12.9644 166.098 13.5902 166.098 14.3366C166.098 14.9567 165.955 15.5022 165.665 15.973C165.374 16.4438 164.957 16.7998 164.421 17.0409C163.879 17.2821 163.138 17.4027 162.185 17.4084L166.263 22.7079H164.86L160.782 17.4084H160.144V22.7079H159.009V11.2993H159.003ZM160.138 12.4189V16.3003L162.088 16.3175C162.847 16.3175 163.406 16.2429 163.765 16.0993C164.13 15.9558 164.41 15.7204 164.615 15.4046C164.82 15.0888 164.917 14.7328 164.917 14.3366C164.917 13.9405 164.815 13.6075 164.609 13.2917C164.404 12.9816 164.136 12.7577 163.8 12.6199C163.463 12.4878 162.91 12.4189 162.134 12.4189H160.138Z" fill="white"/>
<path d="M167.627 11.2993H168.933L171.83 16.0075L174.688 11.2993H176L172.406 17.2591V22.7137H171.289V17.2591L167.627 11.2993Z" fill="white"/>
<path d="M30.0742 17.4997C30.0742 10.5619 24.429 4.92084 17.497 4.92084C10.5651 4.92084 4.91992 10.5619 4.91992 17.4997C4.91992 24.4376 10.5651 30.0786 17.497 30.0786C24.429 30.0786 30.0742 24.4327 30.0742 17.4997Z" fill="#FE0845"/>
<path d="M17.4975 0C7.84899 0 0 7.8501 0 17.5C0 21.8935 1.63192 25.9073 4.31399 28.9842C4.58022 29.2949 4.96971 29.497 5.41344 29.497C6.21214 29.497 6.86294 28.8462 6.86294 28.0473C6.86294 27.6874 6.72489 27.357 6.50796 27.1055H6.51782C4.26962 24.5316 2.90393 21.1736 2.90393 17.5C2.90393 9.44773 9.45133 2.89941 17.5025 2.89941C25.5536 2.89941 32.101 9.44773 32.101 17.5C32.101 25.5523 25.5536 32.1006 17.5025 32.1006C14.7612 32.1006 12.1926 31.3412 9.99859 30.0197C9.7718 29.8767 9.50556 29.788 9.21468 29.788C8.41597 29.788 7.76518 30.4389 7.76518 31.2377C7.76518 31.7604 8.0462 32.214 8.46035 32.4704C11.103 34.0779 14.1992 35 17.5025 35C27.151 35 35 27.1499 35 17.5C35 7.8501 27.1461 0 17.4975 0Z" fill="#FE0845"/>
<path d="M14.9489 22.8682C13.5882 22.8682 12.4115 22.3765 11.4479 21.3981C10.4891 20.4245 10 19.2298 10 17.8433C10 16.4567 10.4891 15.2718 11.4479 14.2934C12.4115 13.3149 13.5882 12.8184 14.9489 12.8184C16.1159 12.8184 17.1812 13.2117 18.1206 13.9885C18.3046 14.1655 18.3918 14.3917 18.3918 14.6523C18.3918 14.7801 18.3675 14.9031 18.324 15.0161C18.2755 15.1292 18.2126 15.2276 18.1303 15.3111C18.0479 15.3947 17.9511 15.4636 17.8349 15.5078C17.7235 15.5521 17.6073 15.5766 17.4814 15.5766C17.2586 15.5766 17.0504 15.4931 16.8616 15.3259C16.6049 15.1243 16.3096 14.9571 15.9851 14.8391C15.6655 14.7261 15.3169 14.6671 14.9489 14.6671C14.0772 14.6671 13.3509 14.9719 12.7311 15.6012C12.1209 16.2207 11.8207 16.9533 11.8207 17.8433C11.8207 18.7332 12.1161 19.4707 12.7311 20.0902C13.346 20.7146 14.0724 21.0195 14.9489 21.0195C15.6994 21.0195 16.3386 20.7933 16.9052 20.3213C17.0698 20.2033 17.2441 20.1492 17.4427 20.1443C17.5782 20.1443 17.6993 20.1689 17.8107 20.218C17.9172 20.2672 18.0092 20.3311 18.0915 20.4098C18.1738 20.4885 18.2416 20.5868 18.2901 20.6999C18.3385 20.8179 18.3627 20.9408 18.3627 21.0637C18.3627 21.3046 18.2659 21.5308 18.0867 21.7176C17.1473 22.4847 16.1013 22.8583 14.9489 22.8583V22.8682Z" fill="white"/>
<path d="M22.2753 15.8473C22.2753 15.8473 22.2511 15.8522 22.2366 15.8571V15.8473H21.9121V14.9721C21.917 14.7705 21.9509 14.6377 22.0187 14.5738C22.0961 14.5001 22.2124 14.4607 22.3673 14.4509C22.3721 14.4509 22.3818 14.446 22.3915 14.4411C22.7498 14.4067 23.0355 14.1117 23.0355 13.7429C23.0355 13.4135 22.808 13.1431 22.5077 13.0644C22.498 13.0595 22.4932 13.0447 22.4787 13.0447C22.2608 12.9956 22.0574 12.9759 21.8685 12.9759C21.3698 12.9759 20.9872 13.089 20.7161 13.3151C20.4449 13.5413 20.2851 13.8462 20.2367 14.2297C20.2125 14.3968 20.1979 14.9377 20.1931 15.8522V15.8768C19.8493 15.9358 19.5781 16.2259 19.5781 16.5946C19.5781 16.9634 19.8445 17.2534 20.1931 17.3125V21.9637C20.1931 22.4455 20.5805 22.8389 21.055 22.8389C21.5296 22.8389 21.917 22.4455 21.917 21.9637V17.337H22.2947C22.6917 17.3272 23.0113 17.0027 23.0113 16.5946C23.0113 16.1865 22.6821 15.8522 22.2801 15.8522L22.2753 15.8473Z" fill="white"/>
</svg>
