<svg width="213" height="48" viewBox="0 0 213 48" fill="none" xmlns="http://www.w3.org/2000/svg">
<g clip-path="url(#clip0_1601_1744)">
<path d="M40.8441 24.0001C40.8441 14.4853 33.1774 6.74902 23.7631 6.74902C14.3488 6.74902 6.68213 14.4853 6.68213 24.0001C6.68213 33.5149 14.3488 41.2511 23.7631 41.2511C33.1774 41.2511 40.8441 33.5081 40.8441 24.0001Z" fill="#FE0845"/>
<path d="M23.7634 0C10.6597 0 0 10.7659 0 24C0 30.0254 2.21631 35.53 5.85882 39.7498C6.2204 40.1758 6.74936 40.4531 7.35199 40.4531C8.4367 40.4531 9.32055 39.5604 9.32055 38.4649C9.32055 37.9713 9.13307 37.5182 8.83845 37.1733H8.85184C5.79856 33.6433 3.94382 29.038 3.94382 24C3.94382 12.9569 12.8358 3.97633 23.7701 3.97633C34.7043 3.97633 43.5963 12.9569 43.5963 24C43.5963 35.0431 34.7043 44.0237 23.7701 44.0237C20.0472 44.0237 16.5587 42.9823 13.5791 41.1699C13.2711 40.9738 12.9095 40.8521 12.5144 40.8521C11.4297 40.8521 10.5459 41.7447 10.5459 42.8402C10.5459 43.5571 10.9275 44.1792 11.49 44.5309C15.0789 46.7354 19.2839 48 23.7701 48C36.8738 48 47.5335 37.2341 47.5335 24C47.5335 10.7659 36.8671 0 23.7634 0Z" fill="#FE0845"/>
<path d="M67.4128 18.4208L65.6384 20.1249C64.4331 18.8401 63.0806 18.1976 61.574 18.1976C60.3018 18.1976 59.2305 18.6372 58.3601 19.5163C57.4896 20.3954 57.0544 21.4774 57.0544 22.7623C57.0544 23.6617 57.2485 24.4529 57.6302 25.1495C58.0186 25.846 58.5609 26.387 59.264 26.786C59.967 27.185 60.7504 27.3811 61.6142 27.3811C62.3507 27.3811 63.0203 27.2391 63.6296 26.9618C64.239 26.6845 64.9085 26.1774 65.6384 25.447L67.3525 27.2594C66.3682 28.2264 65.4375 28.9026 64.5671 29.2746C63.6899 29.6465 62.6922 29.8359 61.574 29.8359C59.505 29.8359 57.811 29.1731 56.4919 27.8477C55.1729 26.5222 54.5167 24.8249 54.5167 22.7556C54.5167 21.4166 54.818 20.2264 55.4139 19.185C56.0165 18.1435 56.8736 17.305 57.9918 16.6693C59.11 16.0337 60.3152 15.7158 61.6075 15.7158C62.7056 15.7158 63.7636 15.9525 64.7813 16.4191C65.7991 16.8857 66.6762 17.5552 67.4061 18.414L67.4128 18.4208Z" fill="#FE0845"/>
<path d="M69.5356 16.0545H72.08V24.7443C72.08 25.4949 72.147 26.0224 72.2742 26.3335C72.4014 26.6446 72.6157 26.8948 72.917 27.0774C73.2183 27.26 73.5732 27.3546 73.995 27.3546C74.4437 27.3546 74.8253 27.2532 75.1467 27.0436C75.4681 26.8339 75.6891 26.5702 75.8163 26.2523C75.9368 25.9345 76.0038 25.3191 76.0038 24.4197V16.0478H78.5482V24.0613C78.5482 25.4138 78.4745 26.3538 78.3205 26.8745C78.1665 27.3952 77.8786 27.9024 77.4568 28.3893C77.0349 28.8762 76.5395 29.2346 75.9837 29.4713C75.4279 29.708 74.7851 29.8229 74.0486 29.8229C73.0844 29.8229 72.2407 29.5998 71.531 29.1534C70.8145 28.7071 70.3057 28.1458 69.9977 27.4696C69.6896 26.7933 69.5356 25.6572 69.5356 24.0545V16.041V16.0545Z" fill="#FE0845"/>
<path d="M88.4711 17.8797L86.5963 19.55C85.9401 18.6235 85.2638 18.1637 84.5808 18.1637C84.246 18.1637 83.9782 18.2516 83.7639 18.4342C83.5497 18.6168 83.4492 18.8196 83.4492 19.0428C83.4492 19.266 83.5229 19.4824 83.6769 19.6852C83.8845 19.9557 84.5005 20.5306 85.5316 21.4097C86.4958 22.2279 87.0851 22.7419 87.2926 22.9515C87.8082 23.4722 88.1698 23.9794 88.384 24.4528C88.5983 24.9329 88.7054 25.4536 88.7054 26.0217C88.7054 27.124 88.3305 28.0369 87.5738 28.7537C86.8172 29.4705 85.8329 29.8289 84.621 29.8289C83.6702 29.8289 82.8466 29.5923 82.1436 29.1256C81.4405 28.659 80.8379 27.9219 80.3357 26.9143L82.465 25.6159C83.1078 26.8061 83.8443 27.3945 84.6746 27.3945C85.1098 27.3945 85.4781 27.266 85.7727 27.009C86.0673 26.752 86.2146 26.4612 86.2146 26.1231C86.2146 25.8188 86.1008 25.5145 85.8798 25.2102C85.6588 24.9059 85.1634 24.4393 84.4 23.8103C82.9471 22.6134 82.0163 21.6937 81.5878 21.0445C81.166 20.3953 80.9517 19.7461 80.9517 19.1037C80.9517 18.1704 81.3066 17.3725 82.0096 16.703C82.7127 16.0335 83.5832 15.7021 84.6143 15.7021C85.2772 15.7021 85.9133 15.8577 86.5092 16.1688C87.1118 16.4798 87.7613 17.0479 88.4644 17.8661L88.4711 17.8797Z" fill="#FE0845"/>
<path d="M89.8102 16.0547H97.1622V18.5771H94.7383V29.4985H92.1671V18.5771H89.8035V16.0547H89.8102Z" fill="#FE0845"/>
<path d="M105.184 15.7148C107.065 15.7148 108.686 16.4045 110.038 17.7773C111.391 19.1501 112.074 20.834 112.074 22.8086C112.074 24.7832 111.404 26.4333 110.065 27.7858C108.726 29.145 107.105 29.8213 105.197 29.8213C103.289 29.8213 101.541 29.1247 100.215 27.7317C98.8964 26.3386 98.2335 24.6818 98.2335 22.7613C98.2335 21.4764 98.5415 20.293 99.1575 19.2177C99.7735 18.1425 100.617 17.2837 101.695 16.6548C102.773 16.0258 103.932 15.708 105.177 15.708L105.184 15.7148ZM105.157 18.2169C103.925 18.2169 102.887 18.6497 102.05 19.5153C101.213 20.3809 100.791 21.4764 100.791 22.8154C100.791 24.3031 101.32 25.4798 102.378 26.3454C103.202 27.0216 104.139 27.3597 105.204 27.3597C106.402 27.3597 107.427 26.9202 108.271 26.0411C109.114 25.1619 109.536 24.0799 109.536 22.7951C109.536 21.5102 109.107 20.435 108.257 19.5491C107.407 18.6632 106.369 18.2169 105.15 18.2169H105.157Z" fill="#FE0845"/>
<path d="M115.757 16.0547H118.227L121.314 25.4275L124.428 16.0547H126.892L129.121 29.4985H126.671L125.245 21.0116L122.419 29.4985H120.189L117.384 21.0116L115.924 29.4985H113.453L115.757 16.0547Z" fill="#FE0845"/>
<path d="M131.237 16.0547H137.906V17.3734H132.57V21.5864H137.906V22.9051H132.57V29.5052H131.237V16.0547Z" fill="#FE0845"/>
<path d="M145.66 16.0547L151.867 29.4985H150.428L148.332 25.0758H142.6L140.525 29.4985H139.038L145.326 16.0547H145.654H145.66ZM145.493 18.9084L143.21 23.7707H147.756L145.486 18.9084H145.493Z" fill="#FE0845"/>
<path d="M166.323 18.5484L165.272 19.3599C164.696 18.5957 164 18.0209 163.189 17.6287C162.379 17.2365 161.489 17.0404 160.518 17.0404C159.453 17.0404 158.476 17.2973 157.565 17.8113C156.661 18.3252 155.958 19.015 155.462 19.8874C154.967 20.7597 154.713 21.7335 154.713 22.8155C154.713 24.452 155.268 25.8248 156.38 26.9203C157.491 28.0158 158.897 28.5636 160.591 28.5636C162.453 28.5636 164.013 27.8265 165.272 26.3523L166.323 27.157C165.66 28.0091 164.83 28.6718 163.839 29.1384C162.848 29.605 161.736 29.8349 160.518 29.8349C158.188 29.8349 156.353 29.0505 155.007 27.4884C153.882 26.1697 153.313 24.5737 153.313 22.7005C153.313 20.7327 153.996 19.0759 155.362 17.7369C156.728 16.3912 158.442 15.7217 160.498 15.7217C161.743 15.7217 162.861 15.9719 163.866 16.4656C164.87 16.9592 165.687 17.6557 166.323 18.5552V18.5484Z" fill="#FE0845"/>
<path d="M167.669 17.3734V16.0547H174.96V17.3734H171.994V29.4985H170.635V17.3734H167.669Z" fill="#FE0845"/>
<path d="M183.217 15.7158C185.232 15.7158 186.919 16.3921 188.279 17.7513C189.638 19.1106 190.314 20.7809 190.314 22.7691C190.314 24.7572 189.638 26.4073 188.279 27.7733C186.926 29.1461 185.272 29.8291 183.324 29.8291C181.375 29.8291 179.688 29.1461 178.329 27.7801C176.969 26.414 176.293 24.764 176.293 22.8299C176.293 21.5383 176.601 20.3413 177.224 19.2391C177.847 18.1368 178.684 17.2712 179.755 16.649C180.819 16.0269 181.978 15.7158 183.223 15.7158H183.217ZM183.277 17.021C182.293 17.021 181.362 17.278 180.478 17.7987C179.594 18.3194 178.905 19.0159 178.416 19.895C177.92 20.7741 177.672 21.7479 177.672 22.8299C177.672 24.4259 178.222 25.7784 179.32 26.8739C180.418 27.9762 181.737 28.5239 183.284 28.5239C184.315 28.5239 185.272 28.2737 186.149 27.7665C187.027 27.2594 187.716 26.5696 188.205 25.6905C188.7 24.8113 188.942 23.8375 188.942 22.7623C188.942 21.6871 188.694 20.7336 188.205 19.868C187.709 19.0024 187.02 18.3126 186.123 17.7987C185.225 17.278 184.281 17.021 183.277 17.021Z" fill="#FE0845"/>
<path d="M193.053 16.0547H195.705C197.184 16.0547 198.182 16.1156 198.711 16.2373C199.501 16.4199 200.144 16.8121 200.639 17.4139C201.135 18.0158 201.383 18.7529 201.383 19.632C201.383 20.3624 201.215 21.0048 200.874 21.5593C200.532 22.1139 200.043 22.5331 199.414 22.8172C198.778 23.1012 197.907 23.2432 196.789 23.25L201.577 29.4917H199.93L195.142 23.25H194.392V29.4917H193.06V16.0547H193.053ZM194.385 17.3734V21.9448L196.675 21.9651C197.566 21.9651 198.222 21.8772 198.644 21.7081C199.073 21.539 199.401 21.2618 199.642 20.8899C199.883 20.5179 199.997 20.0986 199.997 19.632C199.997 19.1654 199.876 18.7732 199.635 18.4013C199.394 18.0361 199.079 17.7724 198.684 17.6101C198.289 17.4545 197.64 17.3734 196.729 17.3734H194.385Z" fill="#FE0845"/>
<path d="M203.177 16.0547H204.71L208.111 21.5999L211.466 16.0547H213.006L208.788 23.0741V29.4985H207.475V23.0741L203.177 16.0547Z" fill="#FE0845"/>
<path d="M21.5941 30.9992C19.7126 30.9992 18.0855 30.323 16.753 28.9773C15.4273 27.6383 14.751 25.995 14.751 24.088C14.751 22.181 15.4273 20.5512 16.753 19.2055C18.0855 17.8598 19.7126 17.1768 21.5941 17.1768C23.2078 17.1768 24.6808 17.7178 25.9798 18.7862C26.2343 19.0297 26.3548 19.3407 26.3548 19.6992C26.3548 19.875 26.3213 20.044 26.2611 20.1996C26.1941 20.3551 26.107 20.4904 25.9932 20.6053C25.8794 20.7203 25.7455 20.815 25.5848 20.8758C25.4308 20.9367 25.2701 20.9705 25.096 20.9705C24.788 20.9705 24.5001 20.8555 24.2389 20.6256C23.884 20.3484 23.4756 20.1184 23.027 19.9561C22.5851 19.8006 22.103 19.7194 21.5941 19.7194C20.3888 19.7194 19.3845 20.1387 18.5274 21.0043C17.6837 21.8564 17.2686 22.864 17.2686 24.088C17.2686 25.312 17.677 26.3264 18.5274 27.1784C19.3778 28.0373 20.3821 28.4566 21.5941 28.4566C22.6319 28.4566 23.5158 28.1455 24.2992 27.4963C24.5268 27.334 24.7679 27.2596 25.0424 27.2528C25.2299 27.2528 25.3973 27.2866 25.5513 27.3543C25.6986 27.4219 25.8258 27.5098 25.9397 27.618C26.0535 27.7262 26.1472 27.8615 26.2142 28.017C26.2811 28.1793 26.3146 28.3484 26.3146 28.5174C26.3146 28.8488 26.1807 29.1599 25.933 29.4168C24.634 30.4718 23.1877 30.9857 21.5941 30.9857V30.9992Z" fill="white"/>
<path d="M31.7247 21.3428C31.7247 21.3428 31.6913 21.3496 31.6712 21.3564V21.3428H31.2226V20.1391C31.2292 19.8619 31.2761 19.6793 31.3699 19.5914C31.477 19.4899 31.6377 19.4358 31.852 19.4223C31.8587 19.4223 31.872 19.4155 31.8854 19.4088C32.3809 19.3614 32.776 18.9557 32.776 18.4485C32.776 17.9954 32.4613 17.6235 32.0461 17.5153C32.0327 17.5085 32.026 17.4882 32.006 17.4882C31.7046 17.4206 31.4234 17.3936 31.1623 17.3936C30.4726 17.3936 29.9437 17.5491 29.5687 17.8602C29.1937 18.1712 28.9728 18.5905 28.9058 19.118C28.8723 19.3479 28.8522 20.0918 28.8455 21.3496V21.3834C28.3701 21.4646 27.9952 21.8635 27.9952 22.3707C27.9952 22.8779 28.3634 23.2769 28.8455 23.3581V29.7553C28.8455 30.4181 29.3812 30.9591 30.0374 30.9591C30.6936 30.9591 31.2292 30.4181 31.2292 29.7553V23.3919H31.7515C32.3006 23.3783 32.7425 22.932 32.7425 22.3707C32.7425 21.8094 32.2872 21.3496 31.7314 21.3496L31.7247 21.3428Z" fill="white"/>
</g>
<defs>
<clipPath id="clip0_1601_1744">
<rect width="213" height="48" fill="white"/>
</clipPath>
</defs>
</svg>
