<svg width="130" height="130" viewBox="0 0 130 130" fill="none" xmlns="http://www.w3.org/2000/svg">
<path d="M75.9732 65.2219C77.149 64.4551 79.1288 63.1637 80.1276 60.7029C81.9436 56.2287 79.3389 50.792 76.2859 47.7381C73.6636 45.1148 69.8912 44.0097 62.3464 41.7993C55.2407 39.7174 53.0637 39.8718 51.8795 37.6871C50.191 34.5725 52.9067 31.108 50.3934 27.7708C50.0919 27.3705 49.0562 25.995 47.4794 25.8209C44.7806 25.5227 42.3911 28.9539 41.4691 31.2414C40.5795 33.4481 40.0121 37.1799 41.9164 39.5135C43.2962 41.2042 44.8016 40.7241 45.6333 42.4056C46.47 44.0973 45.1988 45.0934 45.3778 48.224C45.4492 49.4746 45.593 51.9853 47.2114 53.7133C49.3042 55.9475 51.9684 54.8506 53.0962 56.8856C53.9113 58.3561 52.7866 59.4092 53.3405 61.2244C54.0693 63.614 56.9065 64.7004 59.2794 65.5723C62.0736 66.5994 69.6124 69.3703 75.9732 65.2219Z" fill="url(#paint0_linear_5832_354)"/>
<path opacity="0.16" d="M46.8494 27.1068C48.4065 27.6884 45.6377 32.7749 48.1023 37.9134C50.7541 43.4421 57.8468 45.6576 61.1245 46.6816C66.717 48.4286 68.6094 47.2662 72.5784 49.8349C74.1495 50.8517 77.4218 52.9696 78.1222 56.8975C78.1871 57.2625 78.852 61.3418 76.2683 64.0181C73.3377 67.054 68.4558 65.9764 64.2493 65.0485C61.7075 64.4876 56.6301 63.3673 56.3144 60.7813C56.1215 59.2005 57.7524 57.4359 59.2659 56.6573C61.426 55.5461 63.6426 56.2918 63.7475 55.8389C63.8419 55.4307 62.1342 54.4336 60.01 53.9155C55.7612 52.8796 54.1895 54.8214 50.9381 53.677C50.5439 53.5382 47.4374 52.3938 46.6737 49.6252C46.2332 48.0285 46.5607 45.8503 47.7694 45.1904C49.1367 44.444 51.041 45.9619 51.2998 45.5599C51.5475 45.1755 49.9565 43.554 48.151 42.182C45.4979 40.1659 44.5915 40.3675 43.4387 38.9554C41.6795 36.8009 41.9022 34.0201 41.9397 33.6208C42.2933 29.8795 45.5179 26.6098 46.8494 27.1068Z" fill="white"/>
<path d="M53.2446 66.8382C54.5825 66.4151 56.8346 65.7033 58.4547 63.6007C61.3998 59.778 60.3431 53.8405 58.2178 50.0778C56.3924 46.8458 53.0531 44.7677 46.3748 40.6107C40.085 36.6961 37.9465 36.2597 37.3893 33.8369C36.5948 30.3826 40.1368 27.7742 38.6074 23.884C38.424 23.4171 37.7933 21.8136 36.321 21.2223C33.8006 20.2098 30.5817 22.8736 29.0821 24.8299C27.6356 26.717 26.0913 30.1601 27.3027 32.9195C28.1804 34.9189 29.7588 34.8612 30.1107 36.7045C30.465 38.5594 28.9738 39.1773 28.3096 42.2417C28.0444 43.4658 27.5118 45.9233 28.6094 48.0228C30.0285 50.7374 32.8884 50.3968 33.4314 52.6605C33.8236 54.2962 32.459 55.0087 32.5074 56.9063C32.571 59.4045 35.0143 61.2132 37.0671 62.6911C39.4851 64.431 46.0073 69.1264 53.2446 66.8382Z" fill="url(#paint1_linear_5832_354)"/>
<path opacity="0.16" d="M35.37 22.2924C36.7147 23.2712 32.6878 27.4278 33.6894 33.0403C34.7667 39.0792 41.0082 43.1194 43.8924 44.9865C48.8135 48.1721 50.9476 47.5607 54.0849 51.1018C55.3266 52.5034 57.9134 55.4233 57.5385 59.3957C57.5037 59.7648 57.0543 63.8735 53.8497 65.7579C50.215 67.8954 45.7997 65.5459 41.9948 63.5214C39.696 62.2982 35.1034 59.8544 35.4905 57.2782C35.727 55.7032 37.77 54.4414 39.4361 54.098C41.8141 53.6081 43.7506 54.9218 43.9726 54.5137C44.1725 54.1459 42.7937 52.7263 40.8857 51.6565C37.0689 49.517 35.0357 50.9654 32.2094 48.9894C31.8666 48.7499 29.1797 46.8126 29.1834 43.9402C29.1858 42.2834 30.0831 40.2728 31.424 39.962C32.9406 39.6102 34.3698 41.5845 34.7268 41.2666C35.0682 40.9626 33.9685 38.9734 32.5955 37.166C30.5781 34.5107 29.651 34.4615 28.9175 32.7912C27.7985 30.2429 28.7557 27.6236 28.8988 27.249C30.2398 23.7391 34.2203 21.4554 35.37 22.2924Z" fill="white"/>
<path d="M78.1346 56.1924L59.3677 53.8921V26.1385L78.1346 22.574V56.1924Z" fill="url(#paint2_linear_5832_354)"/>
<path d="M101.026 54.7304L78.1348 56.1924V22.574L101.026 25.7426V54.7304Z" fill="url(#paint3_linear_5832_354)"/>
<path d="M86.7632 23.7673V28.481L94.3841 29.1949V24.8225L86.7632 23.7673Z" fill="white"/>
<path d="M105.528 92.897L74.7632 95.0668V49.8848L105.528 52.0545V92.897Z" fill="url(#paint4_linear_5832_354)"/>
<path d="M74.763 95.0668L49.5415 91.9749V52.7694L74.763 49.8848V95.0668Z" fill="url(#paint5_linear_5832_354)"/>
<path d="M85.6538 50.6523V57.7163L95.962 58.2411V51.3794L85.6538 50.6523Z" fill="white"/>
<path d="M70.114 101.697L83.2881 101.156L79.6409 92.5879L71.1531 93.09L68.8823 96.814L70.114 101.697Z" fill="url(#paint6_linear_5832_354)"/>
<path d="M57.7547 88.0762C57.6671 88.0762 57.5801 88.0823 57.4939 88.0908L56.1248 88.0762L56.133 88.6143C54.8066 89.5402 53.8862 91.5651 53.8862 93.916C53.8862 96.3595 54.8807 98.4512 56.292 99.3221L56.2984 99.7554H57.7547C59.8911 99.7554 61.6232 97.1409 61.6232 93.916C61.6232 90.6907 59.8911 88.0762 57.7547 88.0762Z" fill="url(#paint7_linear_5832_354)"/>
<path d="M56.1253 99.7551C58.2618 99.7551 59.9938 97.1407 59.9938 93.9156C59.9938 90.6906 58.2618 88.0762 56.1253 88.0762C53.9888 88.0762 52.2568 90.6906 52.2568 93.9156C52.2568 97.1407 53.9888 99.7551 56.1253 99.7551Z" fill="url(#paint8_linear_5832_354)"/>
<path d="M95.5565 92.5098C95.4489 92.5098 95.3426 92.5166 95.2371 92.5264L93.5602 92.5098L93.57 93.1127C91.9451 94.1502 90.8174 96.4187 90.8174 99.0522C90.8174 101.79 92.0358 104.133 93.7645 105.109L93.7723 105.594H95.5565C98.1737 105.594 100.296 102.665 100.296 99.0522C100.296 95.4388 98.1741 92.5098 95.5565 92.5098Z" fill="url(#paint9_linear_5832_354)"/>
<path d="M93.5602 105.594C96.1778 105.594 98.2997 102.665 98.2997 99.0519C98.2997 95.4388 96.1778 92.5098 93.5602 92.5098C90.9427 92.5098 88.8208 95.4388 88.8208 99.0519C88.8208 102.665 90.9427 105.594 93.5602 105.594Z" fill="url(#paint10_linear_5832_354)"/>
<path d="M77.5345 95.5488C77.4286 95.5488 77.324 95.5556 77.2201 95.5658L75.5693 95.5488L75.5791 96.1667C73.9796 97.2303 72.8691 99.5558 72.8691 102.256C72.8691 105.062 74.0686 107.465 75.7706 108.465L75.7784 108.963H77.5348C80.1114 108.963 82.2005 105.96 82.2005 102.256C82.2002 98.5518 80.1111 95.5488 77.5345 95.5488Z" fill="url(#paint11_linear_5832_354)"/>
<path d="M75.569 108.963C78.1458 108.963 80.2347 105.96 80.2347 102.256C80.2347 98.5517 78.1458 95.5488 75.569 95.5488C72.9922 95.5488 70.9033 98.5517 70.9033 102.256C70.9033 105.96 72.9922 108.963 75.569 108.963Z" fill="url(#paint12_linear_5832_354)"/>
<path d="M74.9133 106.024C76.361 106.024 77.5346 104.337 77.5346 102.256C77.5346 100.175 76.361 98.4883 74.9133 98.4883C73.4656 98.4883 72.292 100.175 72.292 102.256C72.292 104.337 73.4656 106.024 74.9133 106.024Z" fill="#D8DEE8"/>
<path d="M75.3097 105.755C76.5384 105.755 77.5344 104.188 77.5344 102.256C77.5344 100.324 76.5384 98.7578 75.3097 98.7578C74.081 98.7578 73.085 100.324 73.085 102.256C73.085 104.188 74.081 105.755 75.3097 105.755Z" fill="url(#paint13_linear_5832_354)"/>
<path d="M31.0059 88.0762V95.0577C31.0059 96.88 32.5968 98.2914 34.4007 98.0692L51.3296 95.9842V88.0762H31.0059Z" fill="url(#paint14_linear_5832_354)"/>
<path d="M38.627 87.1074L43.2747 94.3502C43.9392 95.3853 45.0294 96.0697 46.2482 96.2166L61.6231 98.0691L62.7996 90.2723L38.627 87.1074Z" fill="url(#paint15_linear_5832_354)"/>
<path d="M39.6986 90.6348C39.6109 90.6348 39.524 90.6409 39.4377 90.6494L38.0687 90.6348L38.0768 91.1729C36.7504 92.0988 35.8301 94.1236 35.8301 96.4745C35.8301 98.9181 36.8245 101.01 38.2358 101.881L38.2423 102.314H39.6986C41.835 102.314 43.5671 99.6995 43.5671 96.4745C43.5671 93.2493 41.835 90.6348 39.6986 90.6348Z" fill="url(#paint16_linear_5832_354)"/>
<path d="M38.0692 102.314C40.2057 102.314 41.9377 99.6998 41.9377 96.4745C41.9377 93.2493 40.2057 90.6348 38.0692 90.6348C35.9327 90.6348 34.2007 93.2493 34.2007 96.4745C34.2007 99.6998 35.9327 102.314 38.0692 102.314Z" fill="url(#paint17_linear_5832_354)"/>
<path d="M37.5254 99.7552C38.7256 99.7552 39.6987 98.2862 39.6987 96.4743C39.6987 94.6623 38.7256 93.1934 37.5254 93.1934C36.3251 93.1934 35.3521 94.6623 35.3521 96.4743C35.3521 98.2862 36.3251 99.7552 37.5254 99.7552Z" fill="#D8DEE8"/>
<path d="M37.8542 99.5212C38.8728 99.5212 39.6986 98.1576 39.6986 96.4755C39.6986 94.7933 38.8728 93.4297 37.8542 93.4297C36.8355 93.4297 36.0098 94.7933 36.0098 96.4755C36.0098 98.1576 36.8355 99.5212 37.8542 99.5212Z" fill="url(#paint18_linear_5832_354)"/>
<path d="M56.4875 92.5874L24.9068 88.2017C24.3871 88.1295 24 87.684 24 87.1581V59.2576C24 58.6883 24.451 58.2221 25.0185 58.2045L56.4875 57.2324V92.5874Z" fill="url(#paint19_linear_5832_354)"/>
<path d="M81.2764 90.6348L56.4873 92.5873V57.2324L80.0451 58.4796C80.7354 58.5163 81.2764 59.088 81.2764 59.7811V90.6348Z" fill="url(#paint20_linear_5832_354)"/>
<path opacity="0.3" d="M45.094 70.7677C40.5034 64.9656 31.3781 69.2471 26.7717 62.7396C25.7332 61.2728 25.0105 59.7766 24.5087 58.3594C24.2049 58.5446 24.0005 58.8758 24.0005 59.2568V87.1573C24.0005 87.6835 24.3872 88.129 24.9073 88.2009L53.4864 92.1699C51.6819 90.1929 49.87 87.6662 48.5585 84.5085C45.678 77.5748 48.0912 74.5562 45.094 70.7677Z" fill="url(#paint21_linear_5832_354)"/>
<path d="M61.279 71.862C60.4236 75.7115 58.4286 86.8154 60.6551 98.749C60.8209 99.6373 61.5318 100.323 62.4217 100.465L70.1137 101.697C70.1137 101.697 70.1908 94.3947 73.8861 93.9159C77.5813 93.4372 81.0455 96.9108 81.2766 102.932C81.2766 102.932 89.2829 104.013 101.37 101.234C101.37 101.234 102.986 100.887 103.679 99.0534L103.133 90.655C103.089 89.966 102.77 89.3234 102.249 88.8718L95.1339 82.7073C95.1339 82.7073 88.6671 73.5211 86.5117 71.7456C86.5117 71.7456 85.3569 69.8931 76.0418 69.6614C69.6264 69.5019 65.2091 69.9281 63.0805 70.209C62.1919 70.3257 61.4736 70.985 61.279 71.862Z" fill="url(#paint22_linear_5832_354)"/>
<path opacity="0.6" d="M102.724 89.421L102.37 89.8088C102.524 94.1317 103.458 95.6598 95.5565 96.4748C87.655 97.2898 87.897 90.635 87.897 90.635L77.5346 86.1035L68.882 72.4401C67.1645 71.0528 64.1636 70.6738 62.1286 70.5859C61.707 70.8855 61.3964 71.333 61.279 71.8623C60.4236 75.7119 58.4286 86.8157 60.6551 98.749C60.8209 99.6373 61.5318 100.323 62.4217 100.465L70.1137 101.697C70.1137 101.697 70.1908 94.3946 73.8861 93.9159C77.5813 93.4372 81.0455 96.9108 81.2766 102.932C81.2766 102.932 89.2829 104.013 101.37 101.234C101.37 101.234 102.986 100.887 103.679 99.053L103.133 90.6547C103.104 90.2109 102.961 89.7875 102.724 89.421Z" fill="url(#paint23_linear_5832_354)"/>
<path d="M77.4289 84.1105C77.709 84.5719 78.2328 84.8264 78.7678 84.7605L95.176 82.7438L95.1337 82.7072C95.1337 82.7072 89.7673 75.0838 87.1822 72.3848L72.052 73.2974C71.5309 73.329 71.2304 73.9051 71.5018 74.3519L77.4289 84.1105Z" fill="url(#paint24_linear_5832_354)"/>
<path opacity="0.3" d="M87.1992 78.987C82.7315 77.2258 79.0193 79.3131 75.947 76.8502C74.7651 75.9026 74.061 74.5872 73.6451 73.2012L72.0524 73.2972C71.5314 73.3287 71.2309 73.9049 71.5023 74.352L77.429 84.1106C77.7095 84.572 78.2333 84.8265 78.7679 84.7606L92.3836 83.0869C90.5954 80.7571 88.7547 79.6004 87.1992 78.987Z" fill="white"/>
<path d="M101.7 90.535C101.683 90.3851 101.558 90.2721 101.407 90.2734C97.3188 90.3094 92.1774 91.1719 90.4751 91.4779C90.1543 91.5356 89.9432 91.8498 90.0173 92.1677C90.3502 93.592 90.9021 94.5552 91.3085 95.1144C91.5849 95.4944 92.0099 95.7343 92.4775 95.7712C93.764 95.8727 96.6177 96.0447 98.0013 95.7146C99.2319 95.4208 100.41 94.8355 101.043 94.4874C101.411 94.2848 101.672 93.9259 101.736 93.5096C101.891 92.5036 101.765 91.1091 101.7 90.535Z" fill="url(#paint25_linear_5832_354)"/>
<path d="M81.6926 90.9303C81.5776 90.6962 81.6882 90.4146 81.9322 90.324C82.2932 90.19 82.7882 90.0353 83.0758 90.0692C83.4528 90.1136 86.6402 90.9439 88.0982 91.3262C88.5482 91.4443 88.8591 91.8633 88.8287 92.3288C88.7637 93.324 88.3888 94.9003 86.6845 95.077C84.3183 95.3227 82.8234 93.2307 81.6926 90.9303Z" fill="url(#paint26_linear_5832_354)"/>
<path d="M97.0195 96.8143C90.8173 97.6829 89.5589 95.5484 89.5589 95.5484C88.0911 95.7673 86.0044 95.4789 84.8225 95.2726C84.3718 95.1939 83.9347 95.4087 83.6826 95.791C83.4941 96.077 83.151 96.3668 82.5274 96.4747C81.5096 96.6504 79.7765 96.262 78.9272 96.0435C80.1626 97.7436 81.0275 99.9476 81.1418 102.923C81.1418 102.923 89.2828 104.013 101.369 101.234C101.369 101.234 102.986 100.886 103.679 99.0529L103.323 93.5762C102.689 94.5482 101.033 96.2525 97.0195 96.8143Z" fill="url(#paint27_linear_5832_354)"/>
<path opacity="0.6" d="M86.9322 97.8934C86.246 97.8269 85.6606 98.3779 85.6759 99.069C85.7084 100.546 85.5578 102.093 85.4248 103.137C88.9367 103.145 94.4906 102.814 101.369 101.232C101.369 101.232 102.986 100.885 103.679 99.0514L103.472 95.8594C98.5157 98.6771 90.1734 98.2086 86.9322 97.8934Z" fill="url(#paint28_linear_5832_354)"/>
<path d="M63.9246 74.0945L66.1531 74.6353C66.8816 74.8121 67.5191 75.2528 67.9427 75.8727L73.4593 83.9416C73.8359 84.4923 73.3497 85.2221 72.698 85.0836L63.1393 83.0561C62.7542 82.9743 62.4731 82.6435 62.4558 82.2492C62.3959 80.8667 62.332 77.5892 62.8723 74.7785C62.9664 74.291 63.4431 73.9778 63.9246 74.0945Z" fill="url(#paint29_linear_5832_354)"/>
<defs>
<linearGradient id="paint0_linear_5832_354" x1="44.0489" y1="50.2024" x2="77.1984" y2="41.9929" gradientUnits="userSpaceOnUse">
<stop offset="0.00359712" stop-color="#E38DDD"/>
<stop offset="1" stop-color="#9571F6"/>
</linearGradient>
<linearGradient id="paint1_linear_5832_354" x1="26.8662" y1="44.2272" x2="60.2679" y2="44.2272" gradientUnits="userSpaceOnUse">
<stop stop-color="#FD0143"/>
<stop offset="1" stop-color="#FF5858"/>
</linearGradient>
<linearGradient id="paint2_linear_5832_354" x1="78.3684" y1="24.8786" x2="57.6888" y2="59.7091" gradientUnits="userSpaceOnUse">
<stop stop-color="#FFC444"/>
<stop offset="0.3138" stop-color="#FBA94A"/>
<stop offset="0.9964" stop-color="#F36F56"/>
</linearGradient>
<linearGradient id="paint3_linear_5832_354" x1="97.2132" y1="25.7256" x2="75.7638" y2="61.8526" gradientUnits="userSpaceOnUse">
<stop stop-color="#FFC444"/>
<stop offset="0.3138" stop-color="#FBA94A"/>
<stop offset="0.9964" stop-color="#F36F56"/>
</linearGradient>
<linearGradient id="paint4_linear_5832_354" x1="101.226" y1="52.6261" x2="71.3816" y2="102.893" gradientUnits="userSpaceOnUse">
<stop stop-color="#FFC444"/>
<stop offset="0.3138" stop-color="#FBA94A"/>
<stop offset="0.9964" stop-color="#F36F56"/>
</linearGradient>
<linearGradient id="paint5_linear_5832_354" x1="74.6608" y1="52.7348" x2="46.8684" y2="99.5454" gradientUnits="userSpaceOnUse">
<stop stop-color="#FFC444"/>
<stop offset="0.3138" stop-color="#FBA94A"/>
<stop offset="0.9964" stop-color="#F36F56"/>
</linearGradient>
<linearGradient id="paint6_linear_5832_354" x1="68.8822" y1="97.1422" x2="83.2882" y2="97.1422" gradientUnits="userSpaceOnUse">
<stop stop-color="#444B8C"/>
<stop offset="0.9964" stop-color="#26264F"/>
</linearGradient>
<linearGradient id="paint7_linear_5832_354" x1="53.8864" y1="93.9159" x2="61.6233" y2="93.9159" gradientUnits="userSpaceOnUse">
<stop stop-color="#311944"/>
<stop offset="1" stop-color="#6B3976"/>
</linearGradient>
<linearGradient id="paint8_linear_5832_354" x1="52.2569" y1="93.9155" x2="59.9938" y2="93.9155" gradientUnits="userSpaceOnUse">
<stop stop-color="#311944"/>
<stop offset="1" stop-color="#6B3976"/>
</linearGradient>
<linearGradient id="paint9_linear_5832_354" x1="90.8173" y1="99.052" x2="100.296" y2="99.052" gradientUnits="userSpaceOnUse">
<stop stop-color="#311944"/>
<stop offset="1" stop-color="#6B3976"/>
</linearGradient>
<linearGradient id="paint10_linear_5832_354" x1="88.8209" y1="99.052" x2="98.2995" y2="99.052" gradientUnits="userSpaceOnUse">
<stop stop-color="#311944"/>
<stop offset="1" stop-color="#6B3976"/>
</linearGradient>
<linearGradient id="paint11_linear_5832_354" x1="72.8688" y1="102.256" x2="82.2001" y2="102.256" gradientUnits="userSpaceOnUse">
<stop stop-color="#311944"/>
<stop offset="1" stop-color="#6B3976"/>
</linearGradient>
<linearGradient id="paint12_linear_5832_354" x1="70.9034" y1="102.256" x2="80.2346" y2="102.256" gradientUnits="userSpaceOnUse">
<stop stop-color="#311944"/>
<stop offset="1" stop-color="#6B3976"/>
</linearGradient>
<linearGradient id="paint13_linear_5832_354" x1="78.481" y1="101.913" x2="74.2081" y2="102.373" gradientUnits="userSpaceOnUse">
<stop offset="0.00540541" stop-color="#D8DEE8"/>
<stop offset="1" stop-color="#F4F7FA"/>
</linearGradient>
<linearGradient id="paint14_linear_5832_354" x1="31.0057" y1="93.0843" x2="51.3296" y2="93.0843" gradientUnits="userSpaceOnUse">
<stop stop-color="#444B8C"/>
<stop offset="0.9964" stop-color="#26264F"/>
</linearGradient>
<linearGradient id="paint15_linear_5832_354" x1="38.627" y1="92.5881" x2="62.8001" y2="92.5881" gradientUnits="userSpaceOnUse">
<stop stop-color="#444B8C"/>
<stop offset="0.9964" stop-color="#26264F"/>
</linearGradient>
<linearGradient id="paint16_linear_5832_354" x1="35.83" y1="96.4744" x2="43.567" y2="96.4744" gradientUnits="userSpaceOnUse">
<stop stop-color="#311944"/>
<stop offset="1" stop-color="#6B3976"/>
</linearGradient>
<linearGradient id="paint17_linear_5832_354" x1="34.2006" y1="96.4744" x2="41.9375" y2="96.4744" gradientUnits="userSpaceOnUse">
<stop stop-color="#311944"/>
<stop offset="1" stop-color="#6B3976"/>
</linearGradient>
<linearGradient id="paint18_linear_5832_354" x1="41.7133" y1="96.9963" x2="35.7079" y2="96.19" gradientUnits="userSpaceOnUse">
<stop offset="0.00540541" stop-color="#D8DEE8"/>
<stop offset="1" stop-color="#F4F7FA"/>
</linearGradient>
<linearGradient id="paint19_linear_5832_354" x1="24.0001" y1="74.9097" x2="56.4875" y2="74.9097" gradientUnits="userSpaceOnUse">
<stop stop-color="#AA80F9"/>
<stop offset="0.9964" stop-color="#6165D7"/>
</linearGradient>
<linearGradient id="paint20_linear_5832_354" x1="56.4876" y1="74.91" x2="81.2766" y2="74.91" gradientUnits="userSpaceOnUse">
<stop stop-color="#AA80F9"/>
<stop offset="0.9964" stop-color="#6165D7"/>
</linearGradient>
<linearGradient id="paint21_linear_5832_354" x1="24.0002" y1="75.2647" x2="53.4861" y2="75.2647" gradientUnits="userSpaceOnUse">
<stop stop-color="#AA80F9"/>
<stop offset="0.9964" stop-color="#6165D7"/>
</linearGradient>
<linearGradient id="paint22_linear_5832_354" x1="59.6371" y1="86.3822" x2="103.679" y2="86.3822" gradientUnits="userSpaceOnUse">
<stop offset="0.00540541" stop-color="#D8DEE8"/>
<stop offset="1" stop-color="#F4F7FA"/>
</linearGradient>
<linearGradient id="paint23_linear_5832_354" x1="81.3726" y1="87.1719" x2="60.9695" y2="119.389" gradientUnits="userSpaceOnUse">
<stop offset="0.00540541" stop-color="#D8DEE8"/>
<stop offset="1" stop-color="#F4F7FA"/>
</linearGradient>
<linearGradient id="paint24_linear_5832_354" x1="71.4001" y1="78.5778" x2="95.176" y2="78.5778" gradientUnits="userSpaceOnUse">
<stop stop-color="#444B8C"/>
<stop offset="0.9964" stop-color="#26264F"/>
</linearGradient>
<linearGradient id="paint25_linear_5832_354" x1="95.9631" y1="88.9081" x2="95.7309" y2="102.494" gradientUnits="userSpaceOnUse">
<stop stop-color="#444B8C"/>
<stop offset="0.9964" stop-color="#26264F"/>
</linearGradient>
<linearGradient id="paint26_linear_5832_354" x1="83.4164" y1="88.2424" x2="90.2964" y2="100.346" gradientUnits="userSpaceOnUse">
<stop stop-color="#FCB148"/>
<stop offset="0.0521" stop-color="#FDBA46"/>
<stop offset="0.1424" stop-color="#FFC244"/>
<stop offset="0.3183" stop-color="#FFC444"/>
<stop offset="0.4849" stop-color="#FDB946"/>
<stop offset="0.7754" stop-color="#F99C4D"/>
<stop offset="0.8658" stop-color="#F8924F"/>
<stop offset="1" stop-color="#F8924F"/>
</linearGradient>
<linearGradient id="paint27_linear_5832_354" x1="78.9272" y1="98.3549" x2="103.679" y2="98.3549" gradientUnits="userSpaceOnUse">
<stop stop-color="#444B8C"/>
<stop offset="0.9964" stop-color="#26264F"/>
</linearGradient>
<linearGradient id="paint28_linear_5832_354" x1="85.4246" y1="99.4985" x2="103.679" y2="99.4985" gradientUnits="userSpaceOnUse">
<stop stop-color="#444B8C"/>
<stop offset="0.9964" stop-color="#26264F"/>
</linearGradient>
<linearGradient id="paint29_linear_5832_354" x1="62.4172" y1="79.5854" x2="73.5909" y2="79.5854" gradientUnits="userSpaceOnUse">
<stop stop-color="#444B8C"/>
<stop offset="0.9964" stop-color="#26264F"/>
</linearGradient>
</defs>
</svg>
