<svg width="130" height="130" viewBox="0 0 130 130" fill="none" xmlns="http://www.w3.org/2000/svg">
<path d="M73.6751 115.422L36.9604 115.253C32.5452 115.234 28.9811 111.663 29.0001 107.28L29.3904 15.9053C29.4066 11.5195 33.006 7.98124 37.4239 8.00007L74.1386 8.16959C78.5538 8.19111 82.1179 11.7589 82.099 16.142L81.7087 107.517C81.6897 111.903 78.093 115.441 73.6751 115.422Z" fill="url(#paint0_linear_5832_355)"/>
<path d="M73.265 12.1625L66.378 12.1311L46.2624 12.0394L43.8391 12.0289L37.8097 12.0001C34.8172 11.9844 32.3782 14.3976 32.3677 17.39L32.0005 104.244C31.9874 107.234 34.4029 109.668 37.3953 109.681L72.8507 109.844C75.8457 109.857 78.2821 107.444 78.2953 104.451L78.6624 17.597C78.6729 14.6099 76.2575 12.1756 73.265 12.1625Z" fill="#FAFAFA"/>
<path d="M74.3583 19.4281C74.3583 19.6783 74.1523 19.8828 73.8975 19.8828C73.6454 19.8828 73.4395 19.6783 73.4395 19.4254C73.4395 19.1752 73.6454 18.9707 73.9002 18.9707C74.155 18.9734 74.3583 19.1779 74.3583 19.4281Z" fill="#263238"/>
<path d="M74.35 21.0668C74.35 21.317 74.144 21.5215 73.8892 21.5215C73.6371 21.5215 73.4312 21.317 73.4312 21.0641C73.4312 20.8139 73.6371 20.6094 73.8919 20.6094C74.1467 20.6094 74.3527 20.8139 74.35 21.0668Z" fill="#263238"/>
<path d="M74.3446 22.7035C74.3446 22.9537 74.1386 23.1582 73.8838 23.1582C73.6318 23.1582 73.4258 22.9537 73.4258 22.7008C73.4258 22.4506 73.6318 22.2461 73.8865 22.2461C74.1413 22.2488 74.3473 22.4533 74.3446 22.7035Z" fill="#263238"/>
<path d="M75.9711 59.5671H39.2455C38.6032 59.5671 38.0801 59.0478 38.0801 58.4101V36.126C38.0801 35.4883 38.6005 34.969 39.2455 34.969H75.9711C76.6134 34.969 77.1365 35.4883 77.1365 36.126V58.4101C77.1365 59.0505 76.6134 59.5671 75.9711 59.5671Z" fill="#EBEBEB"/>
<path d="M74.8978 57.9711H38.1723C37.5299 57.9711 37.0068 57.4518 37.0068 56.8141V34.53C37.0068 33.8923 37.5272 33.373 38.1723 33.373H74.8978C75.5402 33.373 76.0633 33.8897 76.0633 34.53V56.8141C76.0633 57.4518 75.5402 57.9711 74.8978 57.9711Z" fill="#E0E0E0"/>
<path d="M73.6591 56.645H36.9335C36.2912 56.645 35.7681 56.1284 35.7681 55.488V33.2039C35.7681 32.5662 36.2912 32.0469 36.9335 32.0469H73.6591C74.3014 32.0469 74.8245 32.5635 74.8245 33.2039V55.488C74.8245 56.1257 74.3014 56.645 73.6591 56.645Z" fill="#FC4072"/>
<path d="M42.1997 37.6668C42.1997 37.9816 41.9477 38.1646 41.4652 38.1646H40.5166V36.3457H41.4137C41.8718 36.3457 42.1076 36.5367 42.1076 36.8193C42.1076 37.0022 42.0127 37.1421 41.8637 37.2202C42.0669 37.2821 42.1997 37.4381 42.1997 37.6668ZM40.9394 36.6605V37.0883H41.3622C41.5682 37.0883 41.6821 37.0157 41.6821 36.8731C41.6821 36.7305 41.5682 36.6605 41.3622 36.6605H40.9394ZM41.7715 37.6211C41.7715 37.4677 41.655 37.3951 41.4327 37.3951H40.9367V37.8444H41.4327C41.655 37.8471 41.7715 37.7771 41.7715 37.6211Z" fill="white"/>
<path d="M43.7257 37.7725H42.8746L42.712 38.1626H42.2783L43.0941 36.3438H43.5142L44.3328 38.1626H43.8883L43.7257 37.7725ZM43.5928 37.4523L43.3028 36.7554L43.0128 37.4523H43.5928Z" fill="white"/>
<path d="M46.2056 36.3418V38.1607H45.856L44.9426 37.0548V38.1607H44.5225V36.3418H44.8748L45.7855 37.4477V36.3418H46.2056Z" fill="white"/>
<path d="M47.3062 37.4469L47.0595 37.7025V38.1626H46.6367V36.3438H47.0595V37.194L47.8726 36.3438H48.3443L47.5853 37.1536L48.3903 38.1626H47.8943L47.3062 37.4469Z" fill="white"/>
<path d="M41.8556 45.2343H41.5196V45.6729H41.3461V45.2343H40.3975V45.1105L41.2892 44.002H41.4816L40.6197 45.0809H41.3515V44.6935H41.5196V45.0809H41.8556V45.2343Z" fill="white"/>
<path d="M43.0915 45.1934C43.0915 45.4733 42.8882 45.6885 42.4816 45.6885C42.2377 45.6885 42.0046 45.6051 41.8745 45.4733L41.9585 45.336C42.0669 45.449 42.2621 45.5298 42.4816 45.5298C42.7608 45.5298 42.9153 45.4006 42.9153 45.1934C42.9153 44.9916 42.7744 44.8625 42.46 44.8625H42.3407V44.736L42.8069 44.1548H41.945V44.0015H43.0264V44.1225L42.5494 44.7172C42.9099 44.736 43.0915 44.9244 43.0915 45.1934Z" fill="white"/>
<path d="M44.452 45.181C44.452 45.4662 44.2515 45.6868 43.8422 45.6868C43.5983 45.6868 43.3679 45.6034 43.2378 45.4716L43.3218 45.3343C43.4302 45.4473 43.6227 45.5281 43.8395 45.5281C44.1268 45.5281 44.2759 45.3908 44.2759 45.1863C44.2759 44.9711 44.1403 44.8366 43.7121 44.8366H43.3543L43.4411 43.9998H44.3626V44.1531H43.5929L43.5359 44.6859H43.7528C44.2596 44.6886 44.452 44.885 44.452 45.181Z" fill="white"/>
<path d="M45.9347 45.1739C45.9347 45.486 45.688 45.6878 45.3601 45.6878C44.9129 45.6878 44.6689 45.3811 44.6689 44.8537C44.6689 44.286 44.9806 43.99 45.4387 43.99C45.5905 43.99 45.7314 44.0169 45.8371 44.0815L45.7666 44.2187C45.6799 44.1622 45.5634 44.1407 45.4387 44.1407C45.0755 44.1407 44.8424 44.3721 44.8424 44.8268C44.8424 44.8645 44.8451 44.9129 44.8505 44.964C44.9346 44.781 45.1324 44.6788 45.3655 44.6788C45.7016 44.6707 45.9347 44.8672 45.9347 45.1739ZM45.7639 45.1766C45.7639 44.9559 45.6013 44.816 45.3411 44.816C45.0836 44.816 44.9075 44.9748 44.9075 45.182C44.9075 45.3649 45.0619 45.5398 45.352 45.5398C45.5959 45.5398 45.7639 45.3999 45.7639 45.1766Z" fill="white"/>
<path d="M49.5721 45.6716L49.171 45.1469L48.7671 45.6716H48.5747L49.0761 45.0285L48.5991 44.4177H48.7915L49.171 44.9101L49.5504 44.4177H49.7375L49.2604 45.0285L49.7646 45.6716H49.5721Z" fill="white"/>
<path d="M50.8568 45.6716L50.4557 45.1469L50.0518 45.6716H49.8594L50.3608 45.0285L49.8838 44.4177H50.0762L50.4557 44.9101L50.8351 44.4177H51.0221L50.5451 45.0285L51.0492 45.6716H50.8568Z" fill="white"/>
<path d="M52.139 45.6716L51.7379 45.1469L51.334 45.6716H51.1416L51.643 45.0285L51.166 44.4177H51.3584L51.7379 44.9101L52.1173 44.4177H52.3044L51.8273 45.0285L52.3315 45.6716H52.139Z" fill="white"/>
<path d="M53.4237 45.6716L53.0226 45.1469L52.6187 45.6716H52.4263L52.9277 45.0285L52.4507 44.4177H52.6431L53.0226 44.9101L53.402 44.4177H53.589L53.112 45.0285L53.6161 45.6716H53.4237Z" fill="white"/>
<path d="M57.8548 45.6716L57.4537 45.1469L57.0499 45.6716H56.8574L57.3588 45.0285L56.8818 44.4177H57.0743L57.4537 44.9101L57.8332 44.4177H58.0202L57.5431 45.0285L58.0473 45.6716H57.8548Z" fill="white"/>
<path d="M59.1395 45.6716L58.7384 45.1469L58.3345 45.6716H58.1421L58.6435 45.0285L58.1665 44.4177H58.3589L58.7384 44.9101L59.1178 44.4177H59.3048L58.8278 45.0285L59.3319 45.6716H59.1395Z" fill="white"/>
<path d="M60.4242 45.6716L60.023 45.1469L59.6192 45.6716H59.4268L59.9282 45.0285L59.4512 44.4177H59.6436L60.023 44.9101L60.4025 44.4177H60.5895L60.1125 45.0285L60.6166 45.6716H60.4242Z" fill="white"/>
<path d="M61.7064 45.6716L61.3053 45.1469L60.9014 45.6716H60.709L61.2104 45.0285L60.7334 44.4177H60.9258L61.3053 44.9101L61.6847 44.4177H61.8717L61.3947 45.0285L61.8988 45.6716H61.7064Z" fill="white"/>
<path d="M65.6878 44.0015V45.6724H65.5144V44.1548H65.1187V44.0015H65.6878Z" fill="white"/>
<path d="M67.2028 45.1934C67.2028 45.4733 66.9995 45.6885 66.593 45.6885C66.349 45.6885 66.1159 45.6051 65.9858 45.4733L66.0699 45.336C66.1783 45.449 66.3734 45.5298 66.593 45.5298C66.8721 45.5298 67.0266 45.4006 67.0266 45.1934C67.0266 44.9916 66.8857 44.8625 66.5713 44.8625H66.452V44.736L66.9182 44.1548H66.0563V44.0015H67.1377V44.1225L66.6607 44.7172C67.0212 44.736 67.2028 44.9244 67.2028 45.1934Z" fill="white"/>
<path d="M68.8752 45.2338H68.5391V45.6724H68.3656V45.2338H67.417V45.11L68.3087 44.0015H68.5011L67.6392 45.0804H68.371V44.693H68.5391V45.0804H68.8752V45.2338Z" fill="white"/>
<path d="M70.1734 45.519V45.6724H68.9917V45.5513L69.6909 44.8706C69.8807 44.6849 69.9159 44.5719 69.9159 44.4589C69.9159 44.2652 69.7804 44.1468 69.5229 44.1468C69.325 44.1468 69.1733 44.206 69.0648 44.3324L68.9429 44.2275C69.073 44.0741 69.2817 43.988 69.5392 43.988C69.8807 43.988 70.0975 44.1602 70.0975 44.4401C70.0975 44.5988 70.046 44.7441 69.821 44.9621L69.2491 45.5217H70.1734V45.519Z" fill="white"/>
<path d="M39.5303 49.1402C39.5303 48.9007 39.7173 48.7285 39.9666 48.7285C40.1049 48.7285 40.2214 48.7796 40.2973 48.8684L40.1781 48.9787C40.1238 48.9169 40.0561 48.8846 39.9775 48.8846C39.8284 48.8846 39.72 48.9895 39.72 49.1402C39.72 49.2909 39.8257 49.3958 39.9775 49.3958C40.0588 49.3958 40.1266 49.3635 40.1781 49.3016L40.2973 49.4119C40.2214 49.5034 40.1049 49.5546 39.9666 49.5546C39.7173 49.5519 39.5303 49.3797 39.5303 49.1402Z" fill="white"/>
<path d="M40.937 49.3672H40.5629L40.4925 49.5367H40.3027L40.6605 48.7402H40.8448L41.2026 49.5367H41.0074L40.937 49.3672ZM40.8773 49.2272L40.7499 48.9232L40.6226 49.2272H40.8773Z" fill="white"/>
<path d="M41.7989 49.5384L41.6444 49.3151H41.6363H41.4736V49.5384H41.2866V48.7419H41.6335C41.8477 48.7419 41.9832 48.8523 41.9832 49.0325C41.9832 49.1509 41.9236 49.2397 41.8179 49.2855L41.9994 49.5411H41.7989V49.5384ZM41.6254 48.8899H41.4736V49.1671H41.6254C41.7393 49.1671 41.7962 49.1159 41.7962 49.0272C41.7962 48.9437 41.7393 48.8899 41.6254 48.8899Z" fill="white"/>
<path d="M42.0698 49.4604L42.1322 49.3205C42.1999 49.3689 42.3002 49.4039 42.3978 49.4039C42.5089 49.4039 42.5523 49.3662 42.5523 49.3178C42.5523 49.1698 42.0861 49.272 42.0861 48.9761C42.0861 48.8415 42.1972 48.7285 42.4249 48.7285C42.5252 48.7285 42.6282 48.7527 42.7041 48.7985L42.6471 48.9384C42.5712 48.8953 42.4954 48.8765 42.4249 48.8765C42.3138 48.8765 42.2731 48.9169 42.2731 48.968C42.2731 49.116 42.7393 49.0137 42.7393 49.307C42.7393 49.4415 42.6282 49.5546 42.3978 49.5546C42.2677 49.5519 42.1403 49.5142 42.0698 49.4604Z" fill="white"/>
<path d="M43.9265 48.7419V49.5384H43.7394V49.2128H43.3735V49.5384H43.1865V48.7419H43.3735V49.0568H43.7394V48.7419H43.9265Z" fill="white"/>
<path d="M44.0674 49.1402C44.0674 48.9034 44.2544 48.7285 44.5065 48.7285C44.7585 48.7285 44.9455 48.9034 44.9455 49.1402C44.9455 49.377 44.7585 49.5519 44.5065 49.5519C44.2544 49.5519 44.0674 49.377 44.0674 49.1402ZM44.7585 49.1402C44.7585 48.9895 44.6501 48.8846 44.5065 48.8846C44.3628 48.8846 44.2544 48.9895 44.2544 49.1402C44.2544 49.2909 44.3628 49.3958 44.5065 49.3958C44.6501 49.3958 44.7585 49.2909 44.7585 49.1402Z" fill="white"/>
<path d="M45.0894 48.7419H45.2764V49.3877H45.6802V49.5384H45.0921V48.7419H45.0894Z" fill="white"/>
<path d="M45.7832 48.7419H46.1491C46.412 48.7419 46.5909 48.898 46.5909 49.1402C46.5909 49.3823 46.412 49.5384 46.1491 49.5384H45.7832V48.7419ZM46.1383 49.3877C46.2982 49.3877 46.4012 49.2935 46.4012 49.1402C46.4012 48.9868 46.2955 48.8926 46.1383 48.8926H45.9675V49.3877H46.1383Z" fill="white"/>
<path d="M47.3526 49.3904V49.5384H46.7319V48.7419H47.3391V48.8899H46.9162V49.0621H47.2903V49.2047H46.9162V49.3904H47.3526Z" fill="white"/>
<path d="M48.0139 49.5384L47.8595 49.3151H47.8513H47.6887V49.5384H47.5044V48.7419H47.8513C48.0654 48.7419 48.201 48.8523 48.201 49.0325C48.201 49.1509 48.1413 49.2397 48.0356 49.2855L48.2172 49.5411H48.0139V49.5384ZM47.8405 48.8899H47.6887V49.1671H47.8405C47.9543 49.1671 48.0112 49.1159 48.0112 49.0272C48.0112 48.9437 47.9543 48.8899 47.8405 48.8899Z" fill="white"/>
<path d="M50.8295 52.542H39.7767C39.5381 52.542 39.3457 52.3509 39.3457 52.1142V51.9473C39.3457 51.7106 39.5381 51.5195 39.7767 51.5195H50.8295C51.0681 51.5195 51.2605 51.7106 51.2605 51.9473V52.1142C51.2605 52.3509 51.0653 52.542 50.8295 52.542Z" fill="white"/>
<path d="M70.5179 52.542H64.761C64.5225 52.542 64.3301 52.3509 64.3301 52.1142V51.9473C64.3301 51.7106 64.5225 51.5195 64.761 51.5195H70.5179C70.7564 51.5195 70.9488 51.7106 70.9488 51.9473V52.1142C70.9488 52.3509 70.7564 52.542 70.5179 52.542Z" fill="white"/>
<g opacity="0.2">
<path d="M73.529 32.0469H37.0609C36.3454 32.0469 35.7681 32.6227 35.7681 33.3303V39.8256C38.0719 41.4212 41.2376 41.701 44.0455 41.1171C47.3549 40.431 50.3526 38.7493 53.437 37.3744C56.5214 35.9968 59.9066 34.8909 63.2404 35.4586C66.3844 35.9941 69.065 37.9394 71.9082 39.3789C72.827 39.8444 73.8163 40.2534 74.8272 40.5467V33.3303C74.8245 32.62 74.2445 32.0469 73.529 32.0469Z" fill="white"/>
</g>
<path d="M44.3411 76.2916H38.9637C37.6492 76.2916 36.584 75.2342 36.584 73.9292V68.5909C36.584 67.2859 37.6492 66.2285 38.9637 66.2285H44.3411C45.6556 66.2285 46.7208 67.2859 46.7208 68.5909V73.9292C46.7235 75.2342 45.6556 76.2916 44.3411 76.2916Z" fill="#FEBD46"/>
<path d="M42.6524 72.7998H40.438C40.3784 72.7998 40.3269 72.7595 40.3107 72.7003L39.4921 69.4634H38.7224C38.6492 69.4634 38.5923 69.4042 38.5923 69.3342C38.5923 69.2616 38.6519 69.2051 38.7224 69.2051H39.5924C39.652 69.2051 39.7035 69.2454 39.7198 69.3046L40.5383 72.5415H42.6524C42.7256 72.5415 42.7825 72.6007 42.7825 72.6707C42.7852 72.7433 42.7256 72.7998 42.6524 72.7998Z" fill="white"/>
<path d="M40.858 73.8331C41.0871 73.8331 41.2727 73.6488 41.2727 73.4214C41.2727 73.1941 41.0871 73.0098 40.858 73.0098C40.629 73.0098 40.4434 73.1941 40.4434 73.4214C40.4434 73.6488 40.629 73.8331 40.858 73.8331Z" fill="#FEBD46"/>
<path d="M40.8583 73.9645C40.5574 73.9645 40.3135 73.7223 40.3135 73.4236C40.3135 73.125 40.5574 72.8828 40.8583 72.8828C41.1591 72.8828 41.403 73.125 41.403 73.4236C41.403 73.7196 41.1591 73.9645 40.8583 73.9645ZM40.8583 73.1384C40.7011 73.1384 40.5737 73.2649 40.5737 73.4209C40.5737 73.577 40.7011 73.7035 40.8583 73.7035C41.0155 73.7035 41.1428 73.577 41.1428 73.4209C41.1428 73.2649 41.0155 73.1384 40.8583 73.1384Z" fill="white"/>
<path d="M43.1618 73.8331C43.3908 73.8331 43.5764 73.6488 43.5764 73.4214C43.5764 73.1941 43.3908 73.0098 43.1618 73.0098C42.9327 73.0098 42.7471 73.1941 42.7471 73.4214C42.7471 73.6488 42.9327 73.8331 43.1618 73.8331Z" fill="#FEBD46"/>
<path d="M43.162 73.9645C42.8611 73.9645 42.6172 73.7223 42.6172 73.4236C42.6172 73.125 42.8611 72.8828 43.162 72.8828C43.4628 72.8828 43.7068 73.125 43.7068 73.4236C43.7095 73.7196 43.4628 73.9645 43.162 73.9645ZM43.162 73.1384C43.0048 73.1384 42.8774 73.2649 42.8774 73.4209C42.8774 73.577 43.0048 73.7035 43.162 73.7035C43.3192 73.7035 43.4466 73.577 43.4466 73.4209C43.4466 73.2649 43.3192 73.1384 43.162 73.1384Z" fill="white"/>
<path d="M43.5199 72.2024H40.3623C40.2891 72.2024 40.2322 72.1432 40.2322 72.0733C40.2322 72.0006 40.2918 71.9441 40.3623 71.9441H43.4087L43.7557 70.0041C42.9941 70.0041 39.804 70.0041 39.7741 70.0041C39.701 70.0041 39.644 69.9449 39.644 69.8723C39.644 69.7996 39.7037 69.7431 39.7741 69.7431C39.7796 69.7404 40.2376 69.7431 40.8556 69.7431C42.0807 69.7431 43.9102 69.7431 43.9102 69.7431C43.9481 69.7431 43.9861 69.7593 44.0105 69.7889C44.0348 69.8185 44.0457 69.8561 44.0403 69.8938L43.6473 72.0921C43.6364 72.1567 43.5822 72.2024 43.5199 72.2024Z" fill="white"/>
<path d="M69.6287 70.426H51.1087C50.545 70.426 50.0869 69.9713 50.0869 69.4116V69.0107C50.0869 68.4511 50.545 67.9963 51.1087 67.9963H69.6314C70.1952 67.9963 70.6532 68.4511 70.6532 69.0107V69.4116C70.6532 69.9713 70.1952 70.426 69.6287 70.426Z" fill="#FEBD46"/>
<path d="M59.4594 75.2012H51.1087C50.545 75.2012 50.0869 74.7464 50.0869 74.1868V73.7859C50.0869 73.2262 50.545 72.7715 51.1087 72.7715H59.4594C60.0231 72.7715 60.4812 73.2262 60.4812 73.7859V74.1868C60.4812 74.7464 60.0231 75.2012 59.4594 75.2012Z" fill="#FEBD46"/>
<path d="M79.1989 62.4371C79.1989 62.4748 68.4956 62.5071 55.2961 62.5071C42.0912 62.5071 31.3906 62.4748 31.3906 62.4371C31.3906 62.3995 42.0912 62.3672 55.2961 62.3672C68.4956 62.3672 79.1989 62.3968 79.1989 62.4371Z" fill="#E0E0E0"/>
<path d="M66.7478 90.766H44.352C41.9262 90.766 39.9585 88.8125 39.9585 86.4044V84.6878C39.9585 82.2796 41.9262 80.3262 44.352 80.3262H66.7451C69.1709 80.3262 71.1386 82.2796 71.1386 84.6878V86.4044C71.1386 88.8152 69.1736 90.766 66.7478 90.766Z" fill="#FC4072"/>
<path d="M54.9362 85.0541C54.9362 85.5788 54.5377 85.9044 53.9035 85.9044H53.4997V86.5071H52.8438V84.2012H53.9062C54.5377 84.2012 54.9362 84.5267 54.9362 85.0541ZM54.2721 85.0541C54.2721 84.8389 54.1366 84.7151 53.8656 84.7151H53.4997V85.3904H53.8656C54.1366 85.3904 54.2721 85.264 54.2721 85.0541Z" fill="white"/>
<path d="M56.6926 86.0565H55.7114L55.5298 86.5032H54.8604L55.8849 84.1973H56.5327L57.5599 86.5032H56.8769L56.6926 86.0565ZM56.5028 85.5776L56.2047 84.8403L55.9066 85.5776H56.5028Z" fill="white"/>
<path d="M58.842 85.6791V86.5051H58.1861V85.6683L57.2998 84.1992H57.9937L58.5439 85.114L59.0941 84.1992H59.731L58.842 85.6791Z" fill="white"/>
<path d="M39.1741 22.2578C39.4319 21.1776 38.7587 20.0945 37.6706 19.8387C36.5825 19.5828 35.4915 20.2511 35.2338 21.3312C34.976 22.4114 35.6492 23.4945 36.7373 23.7504C37.8254 24.0063 38.9164 23.338 39.1741 22.2578Z" fill="#FC4072"/>
<path d="M62.1348 22.5248H48.4555C48.0463 22.5248 47.7129 22.1966 47.7129 21.7876V21.497C47.7129 21.0907 48.0436 20.7598 48.4555 20.7598H62.1321C62.5413 20.7598 62.8747 21.088 62.8747 21.497V21.7876C62.8747 22.1966 62.544 22.5248 62.1348 22.5248Z" fill="#E0E0E0"/>
<path d="M72.5586 93.7734H41.6089V95.8264H72.5586V93.7734Z" fill="#6366D8"/>
<path d="M68.1572 39.0471H66.2463C65.7747 39.0471 65.3926 38.6677 65.3926 38.1996V36.3026C65.3926 35.8345 65.7747 35.4551 66.2463 35.4551H68.1572C68.6288 35.4551 69.0109 35.8345 69.0109 36.3026V38.1996C69.0109 38.6677 68.6288 39.0471 68.1572 39.0471Z" fill="white"/>
<path d="M43.0723 94.8008C43.3825 94.9024 47.534 94.9024 47.534 103.04C47.534 111.178 47.3261 121.269 51.6823 121.577C56.0385 121.885 78.9646 121.577 78.9646 121.577V101.158C78.9646 97.7547 76.1969 94.9917 72.7684 94.9702L43.0723 94.8008Z" fill="#FAFAFA"/>
<path d="M43.0724 94.8008C43.5161 94.8008 49.7029 94.8193 60.3049 94.8531C62.9795 94.8624 65.9054 94.8747 69.0484 94.8839C69.8334 94.887 70.6339 94.8901 71.4468 94.8963C72.2535 94.9147 73.0882 94.8531 73.9228 95.0164C74.7512 95.1735 75.5641 95.5 76.2809 95.9836C76.9976 96.4702 77.6212 97.114 78.0898 97.8655C78.5583 98.6171 78.8716 99.4796 78.9864 100.379C79.0423 100.829 79.0423 101.288 79.0423 101.737C79.0423 102.19 79.0423 102.646 79.0423 103.105C79.0423 104.938 79.0423 106.807 79.0454 108.711C79.0454 112.518 79.0454 116.464 79.0485 120.502C79.0485 120.868 79.0485 121.235 79.0485 121.574V121.654H78.9678C70.9504 121.749 63.3239 121.82 56.3955 121.768C55.5299 121.761 54.6735 121.746 53.8296 121.728C52.9825 121.697 52.1572 121.706 51.3257 121.592C50.913 121.503 50.5283 121.321 50.2025 121.068C49.8829 120.807 49.6192 120.496 49.3958 120.16C48.9614 119.485 48.6852 118.743 48.4712 118.007C48.0492 116.528 47.8661 115.056 47.7327 113.642C47.6055 112.228 47.5496 110.867 47.5186 109.57C47.4504 106.974 47.5031 104.627 47.4721 102.569C47.4317 100.518 47.1122 98.7403 46.4699 97.4405C46.1565 96.7875 45.7563 96.2762 45.3622 95.885C44.9558 95.5031 44.54 95.269 44.1925 95.1088C43.4882 94.8285 43.0631 94.8254 43.0724 94.8008C43.119 94.8069 43.1965 94.8193 43.3672 94.8439C43.5595 94.8809 43.8512 94.9394 44.208 95.0842C44.5586 95.2382 44.9837 95.4723 45.3964 95.8542C45.7997 96.2454 46.2093 96.7598 46.5289 97.4158C47.1835 98.7249 47.5155 100.511 47.5621 102.569C47.6024 104.63 47.5559 106.977 47.6303 109.567C47.6675 110.864 47.7234 112.222 47.8537 113.63C47.9871 115.037 48.1764 116.504 48.5953 117.967C48.8094 118.694 49.0824 119.427 49.5075 120.083C49.7247 120.406 49.9791 120.708 50.2862 120.958C50.5996 121.195 50.9626 121.37 51.3536 121.453C52.1479 121.558 52.9918 121.552 53.8327 121.58C54.6766 121.595 55.5299 121.611 56.3955 121.617C63.3208 121.663 70.9473 121.586 78.9647 121.49L78.884 121.571C78.884 121.232 78.884 120.865 78.884 120.499C78.884 116.461 78.8841 112.518 78.8872 108.708C78.8872 106.804 78.8872 104.935 78.8903 103.102C78.8903 102.643 78.8903 102.187 78.8903 101.734C78.8934 101.278 78.8903 100.832 78.8375 100.394C78.7289 99.5165 78.4217 98.6756 77.9656 97.9395C77.5095 97.2033 76.9014 96.575 76.2002 96.0975C75.499 95.6232 74.7078 95.3029 73.8949 95.1488C73.0851 94.9887 72.2566 95.0441 71.4499 95.0256C70.6432 95.0195 69.8458 95.0133 69.0639 95.0102C65.9364 94.9856 63.0229 94.964 60.3639 94.9425C49.7278 94.8562 43.5192 94.8039 43.0724 94.8008Z" fill="#263238"/>
<path d="M51.7881 121.577C51.7881 121.577 55.3748 121.577 56.1443 116.326C57.0596 110.067 56.1443 104.587 61.0187 104.381C65.8931 104.174 78.9648 104.381 78.9648 104.381V121.577H51.7881Z" fill="#E0E0E0"/>
<path d="M60.4077 104.438C60.4077 104.438 64.3389 103.964 64.3389 110.454C64.3389 116.94 64.4413 121.231 68.8006 121.712C73.1568 122.192 99.9209 121.712 99.9209 121.712C99.9209 121.712 95.6671 119.722 95.3568 113.851C95.0465 107.98 93.8023 104.401 89.5485 104.284C85.2947 104.17 60.4077 104.438 60.4077 104.438Z" fill="#FAFAFA"/>
<path d="M60.408 104.438C60.4545 104.435 60.5228 104.432 60.6717 104.426C60.8517 104.423 61.1092 104.417 61.4443 104.41C62.13 104.401 63.1322 104.386 64.4229 104.364C67.0168 104.336 70.7618 104.296 75.3941 104.244C77.7119 104.229 80.2499 104.21 82.9772 104.192C84.3424 104.189 85.751 104.189 87.2062 104.186C87.9322 104.189 88.6707 104.192 89.4184 104.207C90.1693 104.238 90.9419 104.33 91.6648 104.635C92.3815 104.946 93.0145 105.458 93.4892 106.092C93.967 106.727 94.3083 107.46 94.5659 108.221C95.0499 109.754 95.2671 111.387 95.385 113.044C95.4129 113.46 95.4346 113.876 95.4812 114.288L95.5432 114.911L95.6611 115.527L95.7201 115.835L95.8038 116.14L95.9776 116.746C96.1327 117.141 96.2693 117.541 96.4709 117.917C97.2187 119.435 98.4225 120.803 99.9584 121.638L100.231 121.786L99.9274 121.792C99.6947 121.795 99.4402 121.801 99.1858 121.804C92.003 121.921 85.1615 121.998 78.9374 121.998C75.8254 121.992 72.8685 121.983 70.1009 121.866C69.409 121.82 68.7233 121.804 68.0655 121.647C67.4108 121.49 66.7903 121.197 66.3 120.766C65.8098 120.338 65.453 119.79 65.2079 119.226C64.9566 118.659 64.7983 118.077 64.6835 117.501C64.4601 116.349 64.3888 115.231 64.3484 114.181C64.3081 113.127 64.305 112.135 64.305 111.208C64.3081 110.743 64.305 110.297 64.2833 109.868C64.2709 109.653 64.274 109.443 64.2522 109.237C64.2274 109.031 64.2026 108.83 64.1778 108.633C64.1654 108.535 64.153 108.439 64.1406 108.341C64.1188 108.245 64.0971 108.153 64.0785 108.06C64.0382 107.876 63.9947 107.694 63.9544 107.518C63.8954 107.349 63.8396 107.183 63.7837 107.019C63.7558 106.939 63.7279 106.859 63.7 106.779C63.6627 106.705 63.6255 106.631 63.5914 106.557C63.3245 105.963 62.946 105.507 62.5613 105.187C62.1796 104.86 61.7856 104.678 61.4536 104.58C61.1247 104.475 60.861 104.447 60.6841 104.438C60.5972 104.432 60.529 104.432 60.4824 104.435C60.4452 104.438 60.4235 104.438 60.408 104.438C60.4049 104.441 60.4297 104.432 60.4762 104.429C60.5197 104.426 60.5879 104.423 60.6779 104.426C60.8548 104.429 61.1216 104.45 61.4567 104.552C61.7918 104.644 62.1951 104.826 62.583 105.153C62.9739 105.473 63.3649 105.932 63.6379 106.533C64.2522 107.712 64.395 109.36 64.3857 111.208C64.3919 112.135 64.3981 113.127 64.4415 114.178C64.4881 115.228 64.5594 116.34 64.7859 117.48C64.9007 118.049 65.059 118.625 65.3072 119.18C65.5492 119.734 65.8967 120.261 66.3745 120.674C66.8461 121.093 67.4481 121.37 68.0872 121.524C68.7295 121.675 69.4121 121.69 70.1009 121.733C72.8623 121.844 75.8223 121.847 78.9312 121.85C85.1553 121.844 91.9968 121.761 99.1796 121.644C99.434 121.641 99.6885 121.635 99.9212 121.632L99.887 121.786C98.3015 120.923 97.0915 119.54 96.3251 117.991C96.1203 117.609 95.9807 117.199 95.8256 116.799L95.6487 116.183L95.5618 115.875L95.5029 115.561L95.385 114.935L95.3229 114.304C95.2764 113.885 95.2547 113.469 95.2267 113.056C95.1119 111.405 94.8979 109.782 94.42 108.27C94.1687 107.518 93.8336 106.801 93.3682 106.185C92.9059 105.569 92.2978 105.076 91.6059 104.774C90.9077 104.478 90.1538 104.386 89.4153 104.355C88.6707 104.34 87.9322 104.333 87.2062 104.33C85.7541 104.33 84.3424 104.33 82.9803 104.327C80.253 104.34 77.715 104.349 75.3972 104.361C70.7649 104.389 67.0199 104.413 64.426 104.429C63.1353 104.435 62.13 104.441 61.4474 104.444C61.1092 104.444 60.8517 104.444 60.6717 104.444C60.5228 104.441 60.4545 104.438 60.408 104.438Z" fill="#263238"/>
<path d="M61.4439 104.43C61.4439 104.449 61.1306 104.418 60.5752 104.495C60.0291 104.572 59.21 104.809 58.4901 105.502C57.7579 106.177 57.2149 107.282 56.9419 108.561C56.6595 109.848 56.644 111.305 56.5789 112.83C56.5137 114.354 56.4144 115.821 56.0793 117.114C55.918 117.761 55.6791 118.352 55.4371 118.892C55.1888 119.431 54.9127 119.914 54.59 120.308C54.2704 120.703 53.8981 120.995 53.5413 121.186C53.1814 121.377 52.8401 121.467 52.5639 121.522C52.2847 121.565 52.0644 121.587 51.9155 121.581C51.7665 121.581 51.689 121.581 51.689 121.574C51.689 121.568 51.7665 121.559 51.9155 121.55C52.0644 121.544 52.2785 121.513 52.5546 121.46C52.8246 121.396 53.1566 121.3 53.501 121.106C53.8423 120.912 54.196 120.626 54.5031 120.234C54.8103 119.846 55.0771 119.369 55.316 118.833C55.5519 118.297 55.7815 117.712 55.9366 117.074C56.2593 115.796 56.3555 114.342 56.4206 112.821C56.4889 111.299 56.5075 109.833 56.8023 108.527C57.0877 107.227 57.6555 106.1 58.4188 105.416C59.1696 104.71 60.0198 104.486 60.5752 104.427C60.7148 104.409 60.842 104.399 60.9506 104.402C61.0592 104.399 61.1523 104.399 61.2267 104.405C61.3664 104.415 61.4439 104.424 61.4439 104.43Z" fill="#263238"/>
<path d="M74.5001 99.7168C74.5001 99.8693 69.4737 100 63.2745 100C57.0721 100 52.0488 99.8693 52.0488 99.7168C52.0488 99.5643 57.0752 99.4336 63.2745 99.4336C69.4737 99.4336 74.5001 99.5643 74.5001 99.7168Z" fill="#E0E0E0"/>
<path d="M74.9622 102.876C74.9622 102.943 70.1033 103 64.1089 103C58.1113 103 53.2524 102.943 53.2524 102.876C53.2524 102.809 58.1113 102.752 64.1089 102.752C70.1033 102.752 74.9622 102.804 74.9622 102.876Z" fill="#E0E0E0"/>
<path d="M90.2711 109.599C90.2711 109.815 85.2447 110 79.0455 110C72.8431 110 67.8198 109.815 67.8198 109.599C67.8198 109.383 72.8462 109.197 79.0455 109.197C85.2447 109.197 90.2711 109.367 90.2711 109.599Z" fill="#E0E0E0"/>
<path d="M90.5505 113.533C90.5505 113.785 85.9398 114 80.2525 114C74.5652 114 69.9546 113.785 69.9546 113.533C69.9546 113.282 74.5652 113.066 80.2525 113.066C85.9367 113.066 90.5505 113.264 90.5505 113.533Z" fill="#E0E0E0"/>
<defs>
<linearGradient id="paint0_linear_5832_355" x1="28.9996" y1="61.7113" x2="82.0985" y2="61.7113" gradientUnits="userSpaceOnUse">
<stop stop-color="#AA80F9"/>
<stop offset="0.9964" stop-color="#6165D7"/>
</linearGradient>
</defs>
</svg>
