<svg width="130" height="130" viewBox="0 0 130 130" fill="none" xmlns="http://www.w3.org/2000/svg">
<path d="M32.002 75.1105L85.4986 63.4668L24.7358 65.9857L25.5995 71.6116L32.002 75.1105Z" fill="url(#paint0_linear_5832_353)"/>
<path d="M33.3027 53.8379V64.3301L29.0134 61.368L28.5132 53.8379H33.3027Z" fill="#282730"/>
<path d="M73.5864 59.6274L74.9414 63.0929L75.666 63.5718L76.5409 67.1909L90.5707 72.6096L92.7467 71.1018L91.8651 68.8435L90.6761 68.2154L86.6673 61.5517L80.9311 61.672L79.446 57.868L75.4753 57.5918L73.5864 59.6274Z" fill="url(#paint1_linear_5832_353)"/>
<path d="M88.2598 70.0023L38.8729 85.1604L37.3564 83.3475L87.9166 68.8575C88.2284 68.7684 88.5559 68.9399 88.6569 69.2472C88.7601 69.5635 88.5829 69.9043 88.2598 70.0023Z" fill="#FB658D"/>
<path d="M85.6041 65.4986L35.349 77.953L34.7007 75.9307L85.2608 64.3516C85.5727 64.2625 85.9002 64.434 86.0011 64.7414C86.1021 65.0599 85.9249 65.4006 85.6041 65.4986Z" fill="#FB658D"/>
<path d="M28.4126 55.3242V67.0369L38.6265 71.6115C38.6265 71.6115 39.6046 64.8654 37.6596 60.2463L30.4832 58.4578V55.3242H28.4126Z" fill="url(#paint2_linear_5832_353)"/>
<path d="M28.4126 55.3242V67.0369L38.6265 71.6115C38.6265 71.6115 39.6046 64.8654 37.6596 60.2463L30.4832 58.4578V55.3242H28.4126Z" fill="url(#paint3_linear_5832_353)"/>
<path d="M77.3101 49.5215V59.791L86.667 61.5527C86.667 61.5527 87.1224 57.8867 85.4175 53.8355L79.1249 52.2676V49.5215H77.3101Z" fill="#282730"/>
<path d="M37.6616 60.2477L85.4199 53.8379C85.4199 53.8379 87.9301 54.3925 86.6694 61.555L38.6285 71.6129C38.6263 71.6129 39.5326 64.3301 37.6616 60.2477Z" fill="#60336D"/>
<path d="M38.873 84.7113V88.0521L35.3151 88.9162L21.0565 75.1122L20.6841 69.9073L19.9932 68.9318V62.7247L23.4456 62.1211L28.4124 64.4418V70.0699L34.9001 74.0587L37.6616 83.3149L38.873 84.7113Z" fill="url(#paint4_linear_5832_353)"/>
<path d="M38.7608 65.1027L86.9969 57.5949L86.8399 55.4724C86.7456 54.2052 85.5948 53.2809 84.3273 53.4546L36.688 60.0047L38.7608 65.1027Z" fill="url(#paint5_linear_5832_353)"/>
<path d="M13.243 57.6748L9.48995 57.6503C6.00606 57.9555 3 55.3363 3 51.9933V38.9132C3 35.6303 6.75533 32.7996 10.1831 33.0111L80.3769 37.608C83.4951 37.7996 85.9269 40.2628 85.9426 43.2495L85.9561 45.7305C85.9695 48.6771 16.3164 57.4054 13.243 57.6748Z" fill="#675AFF"/>
<path d="M87.1138 45.7305C87.1273 48.6771 84.8727 51.147 81.916 51.4143L18.1808 57.225L13.5394 57.6481C10.1878 57.9532 7.29395 55.3341 7.29395 51.9911V38.9109C7.29395 35.6303 10.0846 33.0312 13.3846 33.2428L18.0283 33.539L34.0793 34.5657L81.7478 37.6103C82.4881 37.657 83.1858 37.8419 83.8184 38.1403C85.7589 39.0468 87.0891 41 87.1004 43.2495L87.1138 45.7305Z" fill="url(#paint6_linear_5832_353)"/>
<path d="M85.052 43.5672L83.356 47.4804L34.9988 49.5182C35.4408 44.9392 35.1177 41.2354 34.678 38.663C34.4851 37.5271 34.2675 36.6118 34.0858 35.9392C33.8458 35.0617 33.6641 34.5984 33.6641 34.5984L34.0813 34.5605L81.7476 37.6095C82.4879 37.6563 83.1855 37.8412 83.8182 38.1396L84.2668 39.0216L85.052 43.5672Z" fill="url(#paint7_linear_5832_353)"/>
<path d="M80.729 39.9258L34.6757 38.6652C34.4828 37.5294 34.2652 36.614 34.0835 35.9414L80.8075 38.1129C80.9713 38.1196 81.1283 38.1664 81.2652 38.2398C81.402 38.3156 81.5187 38.4202 81.6039 38.5517C82.0077 39.1664 81.5097 39.9481 80.729 39.9258Z" fill="#FF3F65"/>
<path d="M81.1889 44.0061L35.1244 44.6832C34.8844 43.5562 34.6286 42.6498 34.4155 41.9883L81.1912 42.191C81.3549 42.191 81.5142 42.2288 81.6533 42.3001C81.7924 42.3714 81.9158 42.4716 82.0055 42.5963C82.434 43.1954 81.9696 43.995 81.1889 44.0061Z" fill="#FF3F65"/>
<path d="M34.6981 55.7188L38.8729 55.3246L40.0192 50.8859L38.671 49.681L35.5797 49.1309L33.9937 50.1932L34.6981 55.7188Z" fill="url(#paint8_linear_5832_353)"/>
<path d="M90.3462 46.7018V47.9157L89.1595 49.1295V50.8845L83.6566 51.272L82.2657 51.37L81.8956 46.6996C81.8956 44.8377 81.4222 43.0092 80.5204 41.3789L79.7307 39.9491L78.7661 37.3789L80.1974 37.4658L87.4523 37.9067L88.9172 40.7753C89.8571 42.6105 90.3462 44.6417 90.3462 46.7018Z" fill="#FC4072"/>
<path d="M90.3461 46.7009V47.9147L89.1594 49.1285V50.8836L83.6565 51.2711L83.2931 46.6965C83.2931 44.839 82.8197 43.0083 81.9179 41.3758L81.126 39.9481L80.1973 37.4648L87.4522 37.9058L88.9171 40.7744C89.857 42.6096 90.3461 44.6408 90.3461 46.7009Z" fill="url(#paint9_linear_5832_353)"/>
<path d="M35.5801 49.1313L81.8958 46.6992C81.8958 46.6992 85.8979 48.3986 85.954 51.1112L38.8733 55.3251C38.8733 55.3251 38.4134 49.815 35.5801 49.1313Z" fill="#675AFF"/>
<path d="M33.644 34.5371L33.6642 34.6017C35.6451 40.7376 35.9278 47.2877 34.4875 53.5683L33.994 55.7197" fill="#FF3F65"/>
<path d="M18.1808 57.225L13.5394 57.6481C10.1878 57.9532 7.29395 55.3341 7.29395 51.9911V38.9109C7.29395 35.6303 10.0846 33.0312 13.3846 33.2428L18.0283 33.539L18.1808 33.7751C18.1808 33.7751 21.4561 46.4633 18.1808 57.225Z" fill="url(#paint10_linear_5832_353)"/>
<path d="M28.5289 46.6999H23.8426C22.6043 46.6999 21.5724 45.7556 21.4714 44.5307L21.0676 39.6331C20.951 38.2144 22.1153 37.014 23.5488 37.0808L28.0893 37.2879C29.2535 37.3414 30.2092 38.2233 30.3438 39.3748L30.8934 44.0652C31.0549 45.4683 29.9512 46.6999 28.5289 46.6999Z" fill="#D3033A"/>
<path d="M29.6237 46.6999H24.9374C23.699 46.6999 22.6671 45.7556 22.5662 44.5307L22.1624 39.6331C22.0457 38.2144 23.21 37.014 24.6435 37.0808L29.184 37.2879C30.3483 37.3414 31.3039 38.2233 31.4385 39.3748L31.9881 44.0652C32.1497 45.4683 31.0459 46.6999 29.6237 46.6999Z" fill="#1F1F26"/>
<path d="M29.5812 41.3259L24.9397 41.2168C24.4058 41.2034 23.9549 40.8181 23.8629 40.2969L23.7373 39.5753C23.6139 38.876 24.1748 38.2435 24.8881 38.2724L29.4937 38.4662C29.9872 38.4862 30.409 38.827 30.5301 39.3014L30.6939 39.9361C30.8756 40.6511 30.3237 41.3415 29.5812 41.3259Z" fill="#F0F0F0"/>
<path d="M26.9679 46.0014L25.2921 45.9613C25.189 45.9591 25.1059 45.87 25.0992 45.7497L25.0588 45.1974C25.0476 45.037 25.1665 44.89 25.3056 44.8967L26.9477 44.9724C27.0442 44.9769 27.1205 45.0548 27.1362 45.164L27.2102 45.6807C27.2304 45.8455 27.1115 46.0036 26.9679 46.0014Z" fill="#F0F0F0"/>
<path d="M25.5993 42.549C25.5993 42.7851 25.4064 42.9788 25.1664 42.9788C24.9286 42.9788 24.7334 42.7873 24.7334 42.549C24.7334 42.3129 24.9263 42.1191 25.1664 42.1191C25.4064 42.1191 25.5993 42.3107 25.5993 42.549Z" fill="#F0F0F0"/>
<path d="M27.3088 42.549C27.3088 42.7851 27.1159 42.9788 26.8758 42.9788C26.638 42.9788 26.4429 42.7873 26.4429 42.549C26.4429 42.3129 26.6358 42.1191 26.8758 42.1191C27.1159 42.1191 27.3088 42.3107 27.3088 42.549Z" fill="#F0F0F0"/>
<path d="M29.0183 42.549C29.0183 42.7851 28.8253 42.9788 28.5853 42.9788C28.3475 42.9788 28.1523 42.7873 28.1523 42.549C28.1523 42.3129 28.3453 42.1191 28.5853 42.1191C28.8253 42.1191 29.0183 42.3107 29.0183 42.549Z" fill="#F0F0F0"/>
<path d="M30.7277 42.549C30.7277 42.7851 30.5348 42.9788 30.2948 42.9788C30.057 42.9788 29.8618 42.7873 29.8618 42.549C29.8618 42.3129 30.0547 42.1191 30.2948 42.1191C30.5348 42.1191 30.7277 42.3107 30.7277 42.549Z" fill="#F0F0F0"/>
<path d="M25.5993 43.9982C25.5993 44.2343 25.4064 44.428 25.1664 44.428C24.9286 44.428 24.7334 44.2365 24.7334 43.9982C24.7334 43.7621 24.9263 43.5684 25.1664 43.5684C25.4064 43.5706 25.5993 43.7621 25.5993 43.9982Z" fill="#F0F0F0"/>
<path d="M27.3088 43.9982C27.3088 44.2343 27.1159 44.428 26.8758 44.428C26.638 44.428 26.4429 44.2365 26.4429 43.9982C26.4429 43.7621 26.6358 43.5684 26.8758 43.5684C27.1159 43.5706 27.3088 43.7621 27.3088 43.9982Z" fill="#F0F0F0"/>
<path d="M29.0183 43.9982C29.0183 44.2343 28.8253 44.428 28.5853 44.428C28.3475 44.428 28.1523 44.2365 28.1523 43.9982C28.1523 43.7621 28.3453 43.5684 28.5853 43.5684C28.8253 43.5706 29.0183 43.7621 29.0183 43.9982Z" fill="#F0F0F0"/>
<path d="M30.7277 43.9982C30.7277 44.2343 30.5348 44.428 30.2948 44.428C30.057 44.428 29.8618 44.2365 29.8618 43.9982C29.8618 43.7621 30.0547 43.5684 30.2948 43.5684C30.5348 43.5706 30.7277 43.7621 30.7277 43.9982Z" fill="#F0F0F0"/>
<path d="M25.983 52.1068C26.688 52.1068 27.2595 51.5394 27.2595 50.8395C27.2595 50.1396 26.688 49.5723 25.983 49.5723C25.278 49.5723 24.7065 50.1396 24.7065 50.8395C24.7065 51.5394 25.278 52.1068 25.983 52.1068Z" fill="#F0F0F0"/>
<path d="M31.0057 50.8396C31.0057 51.3206 30.6131 51.7082 30.1308 51.7082C29.6462 51.7082 29.2559 51.3184 29.2559 50.8396C29.2559 50.3607 29.6484 49.971 30.1308 49.971C30.6131 49.9687 31.0057 50.3585 31.0057 50.8396Z" fill="#F0F0F0"/>
<path d="M127 81.2364L87.3157 96.9981C87.2058 96.6663 87.0824 96.2988 86.9411 95.9001C86.9187 95.8355 86.8962 95.7687 86.8693 95.7019C86.7728 95.4302 86.6697 95.1496 86.5575 94.86C86.5306 94.7865 86.5014 94.7131 86.4722 94.6396C86.4453 94.5661 86.4161 94.4903 86.387 94.4168C86.3533 94.3344 86.3197 94.2476 86.2838 94.1607L86.203 93.9536C86.147 93.8222 86.0931 93.6908 86.037 93.5571C86.0281 93.5371 86.0213 93.5193 86.0124 93.4992C85.9563 93.3656 85.8979 93.2298 85.8396 93.0939C85.3663 92.0048 84.8167 90.8667 84.1908 89.7821C84.1616 89.7309 84.1302 89.6796 84.101 89.6284C83.8902 89.2698 83.6726 88.9157 83.4437 88.5727C83.4101 88.5237 83.3764 88.4747 83.345 88.4257C83.1499 88.134 82.9457 87.8511 82.7371 87.5772C82.6676 87.4881 82.5958 87.3968 82.5262 87.3099C82.4208 87.1763 82.3109 87.0449 82.2009 86.9179C82.165 86.8756 82.1292 86.8333 82.091 86.791C82.0461 86.7398 81.999 86.6863 81.9497 86.6351C81.9003 86.5794 81.851 86.526 81.7994 86.4725C81.7568 86.428 81.7141 86.3812 81.6693 86.3367C81.5975 86.2632 81.5257 86.1919 81.4517 86.1206C81.3933 86.0627 81.3328 86.007 81.2744 85.9536C81.1645 85.8511 81.0524 85.7531 80.9402 85.6596C80.8594 85.5906 80.7787 85.526 80.6957 85.4614C80.6463 85.4213 80.5925 85.3812 80.5409 85.3456C80.496 85.3099 80.4489 85.2765 80.404 85.2453C80.3794 85.2275 80.3547 85.2097 80.33 85.1941C80.2694 85.1518 80.2111 85.1117 80.1505 85.0739C80.09 85.0338 80.0294 84.9959 79.9688 84.9603C79.9217 84.9313 79.8724 84.9024 79.823 84.8756C79.8051 84.8645 79.7849 84.8556 79.7669 84.8445C79.7041 84.8088 79.6413 84.7754 79.5785 84.7442C79.5246 84.7175 79.4731 84.6908 79.4215 84.6685C79.3945 84.6529 79.3676 84.6418 79.3385 84.6284C79.2128 84.5727 79.0872 84.5193 78.9593 84.4747C78.8943 84.4502 78.8315 84.428 78.7686 84.4079C77.3239 83.9447 76.043 83.6997 74.8967 83.6284C73.4699 83.5416 72.2495 83.7264 71.1817 84.1095C65.4141 86.1674 64.0502 93.9491 58.2938 95.4703C55.3573 96.2453 52.0439 95.4859 49.0513 93.0739C47.03 91.448 45.1546 89.0694 43.6448 85.9001C43.2074 84.987 42.8014 84.0093 42.4312 82.9625C41.9556 81.6217 41.5384 80.1696 41.1906 78.6084C40.8676 77.1585 40.6029 75.6128 40.41 73.9692C40.2776 72.8868 40.1789 71.762 40.1138 70.595C40.0645 69.7509 40.0331 68.8868 40.0196 67.9981C39.977 65.3099 39.8581 62.9736 39.6831 60.9447C39.6585 60.6485 39.6315 60.3567 39.6024 60.0739C38.6736 50.6618 36.5066 48.3122 35.5801 48.0761L62.5606 47.2921L82.1606 46.722C82.1606 46.722 83.6591 45.938 84.5968 50.9714C84.6462 51.2364 84.6933 51.5171 84.7381 51.8133C84.9221 52.9959 85.0746 54.448 85.1801 56.2275C85.2003 56.5416 85.216 56.8623 85.2317 57.1963C85.2743 58.1028 85.3057 59.0894 85.3214 60.1607C85.3416 61.4012 85.4089 62.644 85.539 63.8801C85.6175 64.6396 85.7207 65.3946 85.8486 66.1474C85.8688 66.2676 85.8912 66.3879 85.9136 66.5082C85.963 66.7799 86.0146 67.0538 86.0729 67.3278C86.544 69.6106 87.2955 71.9825 88.4666 74.0672C89.4895 75.889 90.831 77.4948 92.592 78.6284C92.8837 78.8155 93.1775 78.9781 93.4759 79.1184C97.6373 81.0805 102.375 78.6106 106.738 77.5661C106.741 77.5661 106.741 77.5638 106.743 77.5638C107.445 77.3968 108.136 77.2632 108.816 77.1941C113.908 76.6685 118.334 78.9202 123.124 80.2008C123.263 80.2387 123.406 80.2788 123.55 80.3211C123.992 80.4502 124.445 80.595 124.907 80.7353C124.997 80.762 125.089 80.7888 125.181 80.8155C125.232 80.8311 125.282 80.8467 125.333 80.86C125.392 80.8779 125.452 80.8935 125.511 80.909C125.686 80.9603 125.863 81.007 126.04 81.0494C126.085 81.0583 126.128 81.0694 126.17 81.0783C126.233 81.0939 126.296 81.1073 126.356 81.1206C126.475 81.1451 126.594 81.1696 126.715 81.1897C126.756 81.1986 126.794 81.2053 126.834 81.2097C126.89 81.2208 126.944 81.2275 127 81.2364Z" fill="#FFBD46"/>
<path d="M126.834 81.2112C126.89 81.2201 126.944 81.229 127 81.2357L87.3156 96.9996C87.2057 96.6655 87.0823 96.298 86.941 95.9016C86.9186 95.837 86.8939 95.7702 86.8692 95.7012C86.7728 95.4295 86.6673 95.1511 86.5574 94.8593C86.5305 94.788 86.5013 94.7123 86.4722 94.6388C86.443 94.5653 86.4161 94.4896 86.3847 94.4161C86.351 94.3315 86.3174 94.2468 86.2837 94.16C86.2545 94.0909 86.2276 94.0219 86.2007 93.9528C86.1469 93.8214 86.0908 93.69 86.0347 93.5542C86.0257 93.5364 86.019 93.5163 86.01 93.4985C85.9539 93.3649 85.8956 93.229 85.8373 93.0931C85.364 92.0041 84.8143 90.866 84.1884 89.7813C84.1593 89.7301 84.1279 89.6789 84.0987 89.6277C83.8878 89.2691 83.668 88.915 83.4414 88.572C83.41 88.523 83.3764 88.474 83.3427 88.425C83.1475 88.1355 82.9434 87.8504 82.7348 87.5787C82.6652 87.4874 82.5957 87.3983 82.5239 87.3092C82.4185 87.1756 82.3108 87.0464 82.2009 86.9172C82.165 86.8749 82.1291 86.8326 82.0909 86.7903C82.0461 86.7368 81.999 86.6856 81.9496 86.6321C81.9002 86.5764 81.8487 86.523 81.7993 86.4695C81.7567 86.4228 81.7118 86.3782 81.6669 86.3337C81.5952 86.2602 81.5234 86.1867 81.4493 86.1176C81.391 86.062 81.3304 86.0041 81.2699 85.9506C81.1622 85.8482 81.05 85.7502 80.9379 85.6566C80.8571 85.5876 80.7741 85.523 80.6933 85.4584C80.6417 85.4183 80.5901 85.3805 80.5386 85.3426C80.4937 85.3092 80.4466 85.2736 80.3995 85.2424C80.3748 85.2246 80.3501 85.2067 80.3254 85.1889C80.2671 85.1488 80.2065 85.1087 80.146 85.0686C80.0854 85.0308 80.0271 84.9929 79.9643 84.9573C79.9149 84.9283 79.8678 84.9016 79.8184 84.8727C79.8005 84.8615 79.7803 84.8504 79.7624 84.8415C79.6995 84.8058 79.6367 84.7724 79.5739 84.7413C79.5201 84.7145 79.4707 84.6878 79.4169 84.6655C79.39 84.6522 79.3608 84.6388 79.3339 84.6277C79.2083 84.572 79.0826 84.5185 78.9548 84.474C78.8919 84.4495 78.8269 84.4295 78.7641 84.4072C77.3194 83.9439 76.0384 83.6989 74.8921 83.6277C82.8783 82.5631 100.114 78.6722 106.736 77.5653C106.738 77.5653 106.738 77.5631 106.738 77.5631C107.441 77.3938 108.134 77.2624 108.811 77.1934C113.904 76.6678 118.33 78.9194 123.119 80.1978C123.258 80.2357 123.402 80.2758 123.545 80.3181C123.987 80.4473 124.44 80.592 124.903 80.7323C124.995 80.7613 125.084 80.788 125.176 80.8148C125.226 80.8303 125.277 80.8437 125.327 80.8593C125.385 80.8771 125.446 80.8927 125.504 80.9083C125.679 80.9573 125.856 81.0041 126.033 81.0464C126.078 81.0553 126.121 81.0686 126.166 81.0753C126.228 81.0909 126.289 81.1043 126.352 81.1154C126.471 81.1399 126.59 81.1644 126.711 81.1867C126.756 81.1978 126.794 81.2045 126.834 81.2112Z" fill="#F9944F"/>
<path opacity="0.16" d="M93.4761 79.1176C87.4617 80.9729 80.992 81.5185 74.7959 82.8838C69.3805 84.0798 64.1132 85.9239 59.1419 88.3671C55.8083 90.0063 52.569 91.9283 49.0514 93.0731C47.0302 91.4473 45.1548 89.0686 43.645 85.8994C47.6561 85.9305 51.7031 85.1755 55.6154 84.1934C66.7334 81.4049 77.3466 76.8103 88.4667 74.0664C89.4897 75.8882 90.8312 77.494 92.5922 78.6277C92.8838 78.8147 93.1777 78.9773 93.4761 79.1176Z" fill="#FCECD6"/>
<path opacity="0.16" d="M84.7383 51.8133C84.1909 52.0115 83.6391 52.1963 83.0872 52.379C71.976 56.0249 60.387 58.3946 49.776 63.2943C46.0588 65.0093 42.2968 67.2298 40.114 70.595C40.0647 69.7509 40.0333 68.8868 40.0198 67.9981C39.9772 65.3099 39.8583 62.9736 39.6833 60.9447C39.6586 60.6485 39.6317 60.3567 39.6025 60.0739C43.4117 57.0048 47.7189 54.4681 52.071 52.1963C55.4831 50.4146 58.9849 48.7554 62.5608 47.2921L82.1607 46.722C82.1607 46.722 83.6593 45.938 84.597 50.9714C84.6463 51.2364 84.6934 51.5171 84.7383 51.8133Z" fill="#FCECD6"/>
<path opacity="0.16" d="M85.9138 66.5072C77.5933 72.1664 68.3553 76.4537 58.884 79.9393C53.7041 81.8457 48.2483 83.5473 42.7522 82.9994C42.6445 82.9883 42.5391 82.9771 42.4314 82.9615C41.9558 81.6208 41.5386 80.1687 41.1908 78.6074C40.8678 77.1575 40.6031 75.6119 40.4102 73.9682C42.1442 74.6965 44.2261 74.3246 46.0858 73.8168C59.9069 70.0462 71.5565 60.5651 85.1803 56.2266C85.2005 56.5406 85.2162 56.8613 85.2319 57.1954C85.2745 58.1018 85.3059 59.0885 85.3216 60.1597C85.3418 61.4003 85.4091 62.643 85.5392 63.8791C85.6177 64.6386 85.7209 65.3936 85.8488 66.1464C85.869 66.2667 85.8914 66.3869 85.9138 66.5072Z" fill="#FCECD6"/>
<defs>
<linearGradient id="paint0_linear_5832_353" x1="24.7349" y1="69.2885" x2="85.497" y2="69.2885" gradientUnits="userSpaceOnUse">
<stop stop-color="#311944"/>
<stop offset="1" stop-color="#6B3976"/>
</linearGradient>
<linearGradient id="paint1_linear_5832_353" x1="73.5861" y1="65.1005" x2="92.7462" y2="65.1005" gradientUnits="userSpaceOnUse">
<stop stop-color="#311944"/>
<stop offset="1" stop-color="#6B3976"/>
</linearGradient>
<linearGradient id="paint2_linear_5832_353" x1="28.4124" y1="63.4677" x2="38.8721" y2="63.4677" gradientUnits="userSpaceOnUse">
<stop stop-color="#311944"/>
<stop offset="1" stop-color="#6B3976"/>
</linearGradient>
<linearGradient id="paint3_linear_5832_353" x1="28.4124" y1="63.4677" x2="38.8721" y2="63.4677" gradientUnits="userSpaceOnUse">
<stop stop-color="#311944"/>
<stop offset="1" stop-color="#6B3976"/>
</linearGradient>
<linearGradient id="paint4_linear_5832_353" x1="19.9929" y1="75.5184" x2="38.8725" y2="75.5184" gradientUnits="userSpaceOnUse">
<stop stop-color="#311944"/>
<stop offset="1" stop-color="#6B3976"/>
</linearGradient>
<linearGradient id="paint5_linear_5832_353" x1="36.6872" y1="59.268" x2="86.9955" y2="59.268" gradientUnits="userSpaceOnUse">
<stop stop-color="#311944"/>
<stop offset="1" stop-color="#6B3976"/>
</linearGradient>
<linearGradient id="paint6_linear_5832_353" x1="7.29395" y1="45.4515" x2="87.1139" y2="45.4515" gradientUnits="userSpaceOnUse">
<stop stop-color="#FD0143"/>
<stop offset="1" stop-color="#FF5858"/>
</linearGradient>
<linearGradient id="paint7_linear_5832_353" x1="33.6642" y1="42.0393" x2="85.0519" y2="42.0393" gradientUnits="userSpaceOnUse">
<stop stop-color="#AA80F9"/>
<stop offset="0.9964" stop-color="#6165D7"/>
</linearGradient>
<linearGradient id="paint8_linear_5832_353" x1="33.9937" y1="52.4248" x2="40.0192" y2="52.4248" gradientUnits="userSpaceOnUse">
<stop stop-color="#AA80F9"/>
<stop offset="0.9964" stop-color="#6165D7"/>
</linearGradient>
<linearGradient id="paint9_linear_5832_353" x1="80.1973" y1="44.3679" x2="90.3461" y2="44.3679" gradientUnits="userSpaceOnUse">
<stop stop-color="#AA80F9"/>
<stop offset="0.9964" stop-color="#6165D7"/>
</linearGradient>
<linearGradient id="paint10_linear_5832_353" x1="7.29397" y1="45.4514" x2="19.6365" y2="45.4514" gradientUnits="userSpaceOnUse">
<stop stop-color="#AA80F9"/>
<stop offset="0.9964" stop-color="#6165D7"/>
</linearGradient>
</defs>
</svg>
