<svg width="130" height="130" viewBox="0 0 130 130" fill="none" xmlns="http://www.w3.org/2000/svg">
<path d="M100.788 78.3601C100.71 68.8846 92.9982 61.2315 83.4907 61.2315C81.2015 61.2315 79.0162 61.679 77.0159 62.4865C73.6195 55.5468 66.4823 50.7637 58.2249 50.7637C48.24 50.7637 39.8949 57.7584 37.82 67.1043C28.4294 67.7074 21 75.4999 21 85.0306C21 94.9536 29.0561 102.999 38.9923 102.999H96.2453C103.288 102.999 109 97.2949 109 90.2613C109 84.8263 105.587 80.1858 100.788 78.3601Z" fill="#FE1D4A"/>
<path d="M100.788 78.3601C100.71 68.8846 92.9982 61.2315 83.4907 61.2315C81.2015 61.2315 79.0162 61.679 77.0159 62.4865C73.6195 55.5468 66.4823 50.7637 58.2249 50.7637C48.24 50.7637 39.8949 57.7584 37.82 67.1043C28.4294 67.7074 21 75.4999 21 85.0306C21 94.9536 29.0561 102.999 38.9923 102.999H96.2453C103.288 102.999 109 97.2949 109 90.2613C109 84.8263 105.587 80.1858 100.788 78.3601Z" fill="url(#paint0_linear_5832_352)" fill-opacity="0.2"/>
<path d="M87.9098 72.5524H42.093C41.3202 72.5524 40.687 71.9201 40.687 71.1483C40.687 70.3765 41.3202 69.7441 42.093 69.7441H87.9098C88.6826 69.7441 89.3158 70.3765 89.3158 71.1483C89.3158 71.9201 88.6826 72.5524 87.9098 72.5524Z" fill="#D3033A"/>
<path d="M89.2185 45.294L83.1432 71.1458L46.8989 71.149L57.0364 28L82.1333 33.8825L89.2185 45.294Z" fill="white"/>
<path opacity="0.8" d="M89.2185 45.294L83.1432 71.1458L46.8989 71.149L57.0364 28L82.1333 33.8825L89.2185 45.294Z" fill="white"/>
<path d="M84.4909 50.1006L56.9619 43.6506C56.5657 43.5566 56.3189 43.1609 56.4131 42.7653C56.5073 42.3697 56.9034 42.1232 57.2996 42.2173L84.8286 48.6673C85.2247 48.7613 85.4715 49.1569 85.3773 49.5525C85.2832 49.9449 84.8838 50.1914 84.4909 50.1006Z" fill="url(#paint1_linear_5832_352)"/>
<path d="M83.4386 54.5752L55.9096 48.1252C55.5135 48.0312 55.2667 47.6356 55.3609 47.2399C55.455 46.8443 55.8512 46.5978 56.2473 46.6919L83.7763 53.1419C84.1725 53.2359 84.4193 53.6315 84.3251 54.0272C84.2309 54.4195 83.8315 54.666 83.4386 54.5752Z" fill="url(#paint2_linear_5832_352)"/>
<path d="M82.3864 59.0498L54.8574 52.5998C54.4612 52.5058 54.2145 52.1102 54.3086 51.7145C54.4028 51.3189 54.7989 51.0725 55.1951 51.1665L82.7241 57.6165C83.1202 57.7105 83.367 58.1061 83.2729 58.5018C83.1787 58.8941 82.7825 59.1406 82.3864 59.0498Z" fill="url(#paint3_linear_5832_352)"/>
<path d="M81.3346 63.5227L53.8056 57.0727C53.4095 56.9787 53.1627 56.5831 53.2569 56.1874C53.351 55.7918 53.7472 55.5454 54.1433 55.6394L81.6723 62.0894C82.0685 62.1834 82.3153 62.579 82.2211 62.9747C82.1302 63.3703 81.7308 63.6167 81.3346 63.5227Z" fill="url(#paint4_linear_5832_352)"/>
<path d="M69.3396 65.432L52.7534 61.5471C52.3572 61.4531 52.1104 61.0574 52.2046 60.6618C52.2988 60.2662 52.6949 60.0197 53.0911 60.1138L69.6773 63.9987C70.0735 64.0927 70.3203 64.4883 70.2261 64.884C70.1319 65.2796 69.7325 65.526 69.3396 65.432Z" fill="url(#paint5_linear_5832_352)"/>
<path d="M89.2185 45.2943L79.9609 43.1249L82.1333 33.8828L89.2185 45.2943Z" fill="#F9944F"/>
<path d="M48.1333 87.5597V93.1774C48.1333 93.7297 48.581 94.1774 49.1333 94.1774H80.8666C81.4189 94.1774 81.8666 93.7297 81.8666 93.1774V87.5597M65 77.2656V89.0303M65 89.0303L60.6 84.6186M65 89.0303L69.4 84.6186" stroke="white" stroke-width="2"/>
<defs>
<linearGradient id="paint0_linear_5832_352" x1="34.5667" y1="71.0144" x2="86.3089" y2="92.9737" gradientUnits="userSpaceOnUse">
<stop stop-color="white"/>
<stop offset="1" stop-color="white" stop-opacity="0"/>
</linearGradient>
<linearGradient id="paint1_linear_5832_352" x1="56.3928" y1="46.1583" x2="85.3971" y2="46.1583" gradientUnits="userSpaceOnUse">
<stop stop-color="#AA80F9"/>
<stop offset="0.9964" stop-color="#6165D7"/>
</linearGradient>
<linearGradient id="paint2_linear_5832_352" x1="55.3406" y1="50.633" x2="84.3449" y2="50.633" gradientUnits="userSpaceOnUse">
<stop stop-color="#AA80F9"/>
<stop offset="0.9964" stop-color="#6165D7"/>
</linearGradient>
<linearGradient id="paint3_linear_5832_352" x1="54.2883" y1="55.1076" x2="83.2926" y2="55.1076" gradientUnits="userSpaceOnUse">
<stop stop-color="#AA80F9"/>
<stop offset="0.9964" stop-color="#6165D7"/>
</linearGradient>
<linearGradient id="paint4_linear_5832_352" x1="53.2366" y1="59.5811" x2="82.2409" y2="59.5811" gradientUnits="userSpaceOnUse">
<stop stop-color="#AA80F9"/>
<stop offset="0.9964" stop-color="#6165D7"/>
</linearGradient>
<linearGradient id="paint5_linear_5832_352" x1="52.1844" y1="62.7729" x2="70.246" y2="62.7729" gradientUnits="userSpaceOnUse">
<stop stop-color="#AA80F9"/>
<stop offset="0.9964" stop-color="#6165D7"/>
</linearGradient>
</defs>
</svg>
